<?xml version="1.0" standalone="no"?>
<!DOCTYPE svg PUBLIC "-//W3C//DTD SVG 1.1//EN" "http://www.w3.org/Graphics/SVG/1.1/DTD/svg11.dtd" >
<svg xmlns="http://www.w3.org/2000/svg" xmlns:xlink="http://www.w3.org/1999/xlink" version="1.1">
<metadata>
Created by FontForge 20170910 at Wed Jun  6 15:33:25 2018
 By Jimmy Wärting
Copyright c 2016 by Lucas Le Bihan. All rights reserved.
</metadata>
<defs>
<font id="HappyTimesattheIKOB-Regular" horiz-adv-x="1516" >
  <font-face 
    font-family="Happy Times at the IKOB"
    font-weight="400"
    font-stretch="normal"
    units-per-em="2049"
    panose-1="2 0 0 0 0 0 0 0 0 0"
    ascent="1639"
    descent="-410"
    x-height="919"
    cap-height="1355"
    bbox="-358 -456 3495 1864"
    underline-thickness="60"
    underline-position="-200"
    stemh="70"
    stemv="175"
    unicode-range="U+0020-FB04"
  />
<missing-glyph horiz-adv-x="699" 
 />
    <glyph glyph-name="fi" unicode="fi" horiz-adv-x="1100" 
d="M198 80v764h-158v75h158c66 226 135 430 312 441l247 15l20 -20l-30 -141h-279c-92 0 -113 -47 -108 -114l13 -181h551v-839l20 -20h113v-60h-451v60h123l20 20v744l-20 20h-356v-764l20 -20h153v-60h-491v60h123z" />
    <glyph glyph-name="fl" unicode="fl" horiz-adv-x="1100" 
d="M749 1172c0 38 -14 42 -47 42h-214c-92 0 -135 -19 -128 -116l13 -179h256v-75h-256v-764l20 -20h133v-60h-471v60h123l20 20v764h-158v75h158c76 247 129 436 376 436h350v-1275l20 -20h113v-60h-451v60h123l20 20v1092z" />
    <glyph glyph-name="f_f" unicode="ff" horiz-adv-x="1187" 
d="M198 80v764h-158v75h158c78 247 131 432 328 443l231 13l20 -20l-30 -141h-279c-92 0 -113 -47 -108 -114l13 -181h375c78 247 131 432 328 443l231 13l20 -20l-30 -141h-279c-92 0 -113 -47 -108 -114l13 -181h256v-75h-256v-764l20 -20h153v-60h-491v60h123l20 20v764
h-375v-764l20 -20h153v-60h-491v60h123z" />
    <glyph glyph-name="f_f_i" unicode="ffi" horiz-adv-x="1651" 
d="M198 80v764h-158v75h158c78 247 131 432 328 443l231 13l20 -20l-30 -141h-279c-92 0 -113 -47 -108 -114l13 -181h376c66 226 135 430 312 441l247 15l20 -20l-30 -141h-279c-92 0 -113 -47 -108 -114l13 -181h551v-839l20 -20h113v-60h-451v60h123l20 20v744l-20 20
h-356v-764l20 -20h153v-60h-491v60h123l20 20v764h-376v-764l20 -20h153v-60h-491v60h123z" />
    <glyph glyph-name="f_f_l" unicode="ffl" horiz-adv-x="1651" 
d="M198 80v764h-158v75h158c78 247 131 432 328 443l231 13l20 -20l-30 -141h-279c-92 0 -113 -47 -108 -114l13 -181h376c76 247 129 436 376 436h350v-1275l20 -20h113v-60h-451v60h123l20 20v1092c0 38 -14 42 -47 42h-214c-92 0 -135 -19 -128 -116l13 -179h256v-75
h-256v-764l20 -20h133v-60h-471v60h123l20 20v764h-376v-764l20 -20h153v-60h-491v60h123z" />
    <glyph glyph-name="T_h" unicode="Th" horiz-adv-x="2040" 
d="M719 90l20 -20h155v-70h-555v70h155l20 20v1149h-159c-192 0 -245 -19 -245 -189v-61h-70v366h1160l165 20l10 -20v-570h20c52 70 123 154 273 154c124 0 237 -81 237 -257v-602l20 -20h113v-60h-441v60h113l20 20v571c0 97 -43 173 -149 173s-185 -96 -206 -132v-612
l20 -20h113v-60h-451v60h123l20 20v970c0 170 -73 189 -265 189h-216v-1149z" />
    <glyph glyph-name=".notdef" horiz-adv-x="699" 
 />
    <glyph glyph-name="Yacute" unicode="&#xdd;" horiz-adv-x="1425" 
d="M528 1452h-60l380 379l110 -114zM818 90l20 -20h155v-70h-555v70h155l20 20v524l-444 651l-20 20h-130v70h566v-70h-150l-20 -20l354 -537h19c184 296 220 364 342 537l-20 20h-160v70h448v-70h-140l-20 -20l-420 -651v-524z" />
    <glyph glyph-name="yacute" unicode="&#xfd;" horiz-adv-x="1037" 
d="M346 1016h-60l380 379l110 -114zM495 -92c-124 -304 -191 -343 -366 -347l-44 -1l-20 20l30 141h81c160 0 178 29 257 209l36 82l-321 827l-20 20h-98v60h451v-60h-117l-20 -20l199 -594h20l222 594l-21 20h-119v60h392v-60h-121l-20 -20c-74 -168 -209 -461 -263 -594z
" />
    <glyph glyph-name="CR" horiz-adv-x="500" 
 />
    <glyph glyph-name="brokenbar" unicode="&#xa6;" horiz-adv-x="230" 
d="M80 1375h70v-571h-70v571zM80 571h70v-571h-70v571z" />
    <glyph glyph-name="minus" unicode="&#x2212;" horiz-adv-x="1041" 
d="M981 712v-70h-921v70h921z" />
    <glyph glyph-name="multiply" unicode="&#xd7;" horiz-adv-x="1042" 
d="M871 377l-50 -49l-286 286h-28l-287 -286l-49 49l286 287v28l-286 286l49 50l287 -287h28l286 286l49 -49l-286 -286v-28z" />
    <glyph glyph-name="space" unicode=" " horiz-adv-x="508" 
 />
    <glyph glyph-name="exclam" unicode="!" horiz-adv-x="408" 
d="M242 375h-75c0 320 -65 564 -65 1000h205c0 -436 -65 -680 -65 -1000zM100 0v208h208v-208h-208z" />
    <glyph glyph-name="quotedbl" unicode="&#x22;" horiz-adv-x="385" 
d="M330 1375v-372h-75v372h75zM130 1375v-372h-75v372h75z" />
    <glyph glyph-name="numbersign" unicode="#" horiz-adv-x="1001" 
d="M100 -20l115 422v18h-220l20 70h224l93 342v17h-232l20 70h236l124 456h76l-119 -437v-19h265l124 456h76l-119 -437v-19h218l-20 -70h-222l-93 -340v-19h230l-20 -70h-234l-120 -440h-76l115 422v18h-265l-120 -440h-76zM678 849h-265l-93 -340v-19h265l93 342v17z" />
    <glyph glyph-name="dollar" unicode="$" horiz-adv-x="1036" 
d="M104 1036c0 235 176 334 357 339v200h70v-203c127 -13 222 -66 274 -97h20v80h70v-476h-70v60c0 153 -97 330 -294 353v-467l209 -135c140 -90 216 -200 216 -376c0 -204 -176 -334 -425 -334v-180h-70v184c-146 14 -254 72 -301 95h-20v-80h-70v476h70v-60
c0 -154 113 -329 321 -352v545l-134 90c-120 81 -223 172 -223 338zM284 1114c0 -115 67 -172 157 -231h20v411c-109 -8 -177 -74 -177 -180zM531 548v-487c138 7 221 80 221 201c0 119 -47 182 -202 286h-19z" />
    <glyph glyph-name="percent" unicode="%" horiz-adv-x="1104" 
d="M181 -20l619 1315l-20 20h-288l-20 -20c36 -45 62 -117 62 -208c0 -214 -138 -409 -295 -409c-108 0 -200 98 -200 289c0 185 127 408 334 408h514l20 -20l-648 -1375h-78zM366 1305c-119 0 -205 -188 -205 -363c0 -139 35 -209 109 -209c92 0 194 165 194 379
c0 130 -31 193 -98 193zM844 678c126 0 190 -116 190 -268c0 -234 -138 -429 -295 -429c-108 0 -200 98 -200 289c0 185 127 408 305 408zM864 608c-117 0 -203 -188 -203 -363c0 -139 37 -209 109 -209c92 0 194 165 194 379c0 130 -41 193 -100 193z" />
    <glyph glyph-name="ampersand" unicode="&#x26;" horiz-adv-x="1412" 
d="M874 112l-37 50c-114 -107 -257 -182 -441 -182c-196 0 -346 108 -346 328c0 260 254 380 346 432c8 5 16 9 25 14c-46 93 -67 177 -67 278c0 172 132 343 348 343c124 0 252 -61 252 -225s-191 -300 -325 -377c39 -68 92 -139 155 -224l114 -153h19
c89 121 155 258 195 349l-20 20h-150v70h470v-70h-172l-30 -20c-62 -122 -138 -290 -246 -437l76 -102c56 -75 100 -111 170 -111c66 0 108 50 156 125l24 -56c-59 -85 -127 -184 -285 -184c-93 0 -160 37 -231 132zM542 1070c0 -81 16 -150 47 -219h18
c124 70 237 158 237 287c0 96 -50 157 -138 157c-96 0 -164 -75 -164 -225zM264 400c0 -156 96 -270 248 -270c99 0 188 45 266 111l-190 255c-49 67 -90 125 -123 179h-19c-113 -67 -182 -142 -182 -275z" />
    <glyph glyph-name="quotesingle" unicode="'" horiz-adv-x="185" 
d="M130 1375v-372h-75v372h75z" />
    <glyph glyph-name="parenleft" unicode="(" horiz-adv-x="670" 
d="M573 1262l41 -55c-164 -77 -374 -318 -374 -748s210 -671 374 -748l-41 -55c-197 83 -483 373 -483 803s286 720 483 803z" />
    <glyph glyph-name="parenright" unicode=")" horiz-adv-x="670" 
d="M97 -344l-41 55c164 77 374 318 374 748s-210 671 -374 748l41 55c197 -83 483 -373 483 -803s-286 -720 -483 -803z" />
    <glyph glyph-name="asterisk" unicode="*" horiz-adv-x="641" 
d="M550 1152l-178 103l-17 -13v-202h-70v202l-17 13l-177 -103l-35 61l177 102v20l-178 102l35 61l178 -103l17 13v202h70v-202l17 -13l177 103l35 -61l-176 -102v-20l177 -102z" />
    <glyph glyph-name="plus" unicode="+" horiz-adv-x="1040" 
d="M980 713v-70h-405l-20 -20v-405h-70v405l-20 20h-405v70h405l20 20v404h70v-404l20 -20h405z" />
    <glyph glyph-name="comma" unicode="," horiz-adv-x="508" 
d="M319 37c0 -137 -73 -253 -197 -343l-31 52c97 78 134 150 134 234l-15 20h-109v208h218v-171z" />
    <glyph glyph-name="hyphen" unicode="-" horiz-adv-x="620" 
d="M80 409v100h460v-100h-460z" />
    <glyph glyph-name="period" unicode="." horiz-adv-x="508" 
d="M100 0v208h208v-208h-208z" />
    <glyph glyph-name="slash" unicode="/" horiz-adv-x="475" 
d="M10 0l380 1375h75l-380 -1375h-75z" />
    <glyph glyph-name="zero" unicode="0" horiz-adv-x="1070" 
d="M532 -20c-327 0 -462 365 -462 675c0 425 165 720 468 720c327 0 462 -345 462 -680c0 -400 -165 -715 -468 -715zM546 50c174 0 249 215 249 575c0 390 -69 680 -271 680c-184 0 -249 -240 -249 -580c0 -390 81 -675 271 -675z" />
    <glyph glyph-name="one" unicode="1" horiz-adv-x="705" 
d="M307 80v1115l-20 20l-160 -79l-27 55l362 184l20 -20v-1275l20 -20h163v-60h-541v60h163z" />
    <glyph glyph-name="two" unicode="2" horiz-adv-x="919" 
d="M40 0v20c378 386 648 632 648 902c0 172 -97 284 -271 284c-197 0 -289 -140 -325 -246l-41 30c14 114 127 386 428 386c237 0 354 -172 354 -363c0 -307 -298 -603 -551 -839l20 -20h287c140 0 190 34 190 194v35h60v-383h-799z" />
    <glyph glyph-name="three" unicode="3" horiz-adv-x="933" 
d="M852 426c0 -272 -205 -446 -472 -446c-198 0 -281 72 -339 128v30l122 120l85 -82c70 -68 114 -118 202 -118c137 0 253 106 253 274c0 246 -219 318 -400 328v60c84 18 315 106 315 294c0 118 -66 211 -216 211c-164 0 -240 -121 -281 -225l-41 30
c28 114 144 345 409 345c177 0 294 -101 294 -272c0 -141 -107 -227 -197 -293v-20c82 -26 266 -104 266 -364z" />
    <glyph glyph-name="four" unicode="4" horiz-adv-x="996" 
d="M120 468h443v574h-20l-423 -554v-20zM0 328v140l708 907l20 -20v-887h228v-140h-228v-328h-165v328h-563z" />
    <glyph glyph-name="five" unicode="5" horiz-adv-x="938" 
d="M422 58c133 0 251 126 251 304c0 348 -303 438 -588 465l-20 20l234 508h579v-154h-556l-85 -180l20 -20c243 -41 565 -153 565 -535c0 -292 -205 -486 -472 -486c-198 0 -281 72 -339 128v30l122 120l113 -110c60 -58 106 -90 176 -90z" />
    <glyph glyph-name="six" unicode="6" horiz-adv-x="1008" 
d="M507 -20c-230 0 -447 185 -447 545c0 512 402 828 844 873l27 -56c-347 -45 -587 -304 -633 -568h20c62 64 133 114 256 114c197 0 374 -144 374 -436c0 -261 -174 -472 -441 -472zM264 506c0 -288 106 -456 260 -456c164 0 224 163 224 359c0 245 -90 373 -268 373
c-82 0 -159 -51 -201 -122c-9 -40 -15 -91 -15 -154z" />
    <glyph glyph-name="seven" unicode="7" horiz-adv-x="882" 
d="M355 1201c-192 0 -245 -9 -245 -179v-52h-70v385h822l20 -20l-429 -1335h-183l483 1181l-20 20h-378z" />
    <glyph glyph-name="eight" unicode="8" horiz-adv-x="940" 
d="M249 1114c0 -109 57 -191 259 -318c92 58 191 142 191 294c0 116 -81 215 -233 215c-130 0 -217 -73 -217 -191zM60 295c0 199 133 291 272 378v20c-85 61 -257 182 -257 357c0 230 204 325 399 325c204 0 366 -89 366 -275c0 -174 -132 -252 -270 -336v-20
c166 -114 310 -219 310 -418c0 -182 -131 -346 -428 -346c-218 0 -392 119 -392 315zM480 50c139 0 225 74 225 212c0 158 -111 238 -312 380c-89 -62 -173 -144 -173 -311c0 -234 162 -281 260 -281z" />
    <glyph glyph-name="nine" unicode="9" horiz-adv-x="1008" 
d="M501 1375c230 0 447 -185 447 -545c0 -502 -402 -818 -844 -873l-27 56c347 55 587 304 633 568h-20c-62 -64 -133 -114 -256 -114c-197 0 -374 144 -374 436c0 261 174 472 441 472zM260 946c0 -245 90 -373 268 -373c82 0 159 51 201 122c9 40 15 91 15 154
c0 288 -106 456 -260 456c-164 0 -224 -163 -224 -359z" />
    <glyph glyph-name="colon" unicode=":" horiz-adv-x="508" 
d="M100 711v208h208v-208h-208zM100 0v208h208v-208h-208z" />
    <glyph glyph-name="semicolon" unicode=";" horiz-adv-x="508" 
d="M101 711v208h208v-208h-208zM319 37c0 -137 -73 -253 -197 -343l-31 52c97 78 134 150 134 234l-15 20h-109v208h218v-171z" />
    <glyph glyph-name="less" unicode="&#x3c;" horiz-adv-x="1041" 
d="M893 225l-853 443v20l853 443v-80l-691 -363v-20l691 -363v-80z" />
    <glyph glyph-name="equal" unicode="=" horiz-adv-x="1041" 
d="M911 919v-70h-781v70h781zM911 506v-70h-781v70h781z" />
    <glyph glyph-name="greater" unicode="&#x3e;" horiz-adv-x="1041" 
d="M148 225v80l691 363v20l-691 363v80l853 -443v-20z" />
    <glyph glyph-name="question" unicode="?" horiz-adv-x="865" 
d="M476 1398c213 0 388 -116 388 -358c0 -273 -257 -402 -398 -474v-191h-76v210l12 24c98 54 262 176 262 415c0 178 -113 308 -248 308c-96 0 -151 -31 -174 -128l-46 -191l-176 -20l-12 26c20 179 159 379 468 379zM327 0v208h208v-208h-208z" />
    <glyph glyph-name="at" unicode="@" horiz-adv-x="1622" 
d="M1382 -73c-12 -9 -226 -169 -571 -169s-731 223 -731 640c0 447 391 736 817 736c378 0 645 -240 645 -546c0 -384 -347 -509 -523 -509h-63c-51 27 -56 78 -35 157l9 33h-15c-48 -86 -152 -205 -267 -205c-78 0 -183 46 -183 215c0 293 239 491 432 491
c97 0 129 -45 145 -67h14v-2l17 55h151l-160 -584l15 -15c73 0 389 51 389 435c0 297 -278 472 -556 472c-338 0 -683 -228 -682 -651c1 -363 277 -585 605 -585s495 146 510 157zM639 299c0 -83 37 -116 81 -116c120 0 235 216 257 260l50 164c-8 53 -38 95 -102 95
c-134 0 -286 -233 -286 -403z" />
    <glyph glyph-name="A" unicode="A" horiz-adv-x="1459" 
d="M150 90c224 560 252 626 540 1285h50l559 -1285l20 -20h110v-70h-525v70h155l20 20l-141 340h-537c-40 -95 -85 -203 -143 -340l20 -20h155v-70h-413v70h110zM450 530h438v19l-216 519h-20c-82 -219 -136 -357 -202 -518v-20z" />
    <glyph glyph-name="B" unicode="B" horiz-adv-x="1315" 
d="M90 1285v70h580c300 0 505 -115 505 -350c0 -171 -145 -257 -266 -280v-20c159 -45 306 -131 306 -331c0 -234 -205 -374 -505 -374h-620v70h155l20 20v1175l-20 20h-155zM470 1255v-505h170c180 0 300 65 300 255s-120 250 -300 250h-170zM680 650h-210v-550h210
c180 0 300 84 300 274s-120 276 -300 276z" />
    <glyph glyph-name="C" unicode="C" horiz-adv-x="1338" 
d="M1298 284c-54 -78 -192 -304 -558 -304c-380 0 -680 290 -680 705c0 410 310 690 700 690c245 0 374 -93 385 -100h20v80h70v-476h-70v60c0 195 -147 356 -387 356c-313 0 -483 -275 -483 -600c0 -320 155 -615 507 -615c302 0 406 182 450 256z" />
    <glyph glyph-name="D" unicode="D" horiz-adv-x="1515" 
d="M90 1285v70h540c480 0 825 -162 825 -677s-395 -678 -785 -678h-580v70h155l20 20v1175l-20 20h-155zM470 1255v-1155h170c380 0 577 178 580 578c0 400 -200 577 -600 577h-150z" />
    <glyph glyph-name="E" unicode="E" horiz-adv-x="1310" 
d="M470 660v-544h470c140 0 200 34 200 194v95h70v-405h-1120v70h155l20 20v1175l-20 20h-155v70h1070v-385h-70v90c0 170 -53 179 -245 179h-375v-479h395l20 20v130h70v-400h-70v130l-20 20h-395z" />
    <glyph glyph-name="F" unicode="F" horiz-adv-x="1240" 
d="M470 90l20 -20h175v-70h-575v70h155l20 20v1175l-20 20h-155v70h1070v-385h-70v80c0 170 -53 189 -245 189h-375v-479h395l20 20v130h70v-400h-70v130l-20 20h-395v-570z" />
    <glyph glyph-name="G" unicode="G" horiz-adv-x="1465" 
d="M1185 114h-20c-55 -34 -170 -134 -420 -134c-395 0 -685 300 -685 705c0 440 340 690 700 690c245 0 368 -89 385 -100h20v80h70v-476h-70v60c0 181 -133 356 -387 356c-303 0 -483 -265 -483 -600c0 -350 175 -635 485 -635c230 0 330 169 330 375v135l-20 20h-155v70
h465v-70h-115l-20 -20v-570h-80v114z" />
    <glyph glyph-name="H" unicode="H" horiz-adv-x="1555" 
d="M470 90l20 -20h155v-70h-555v70h155l20 20v1175l-20 20h-155v70h555v-70h-155l-20 -20v-525h615v525l-20 20h-155v70h555v-70h-155l-20 -20v-1175l20 -20h155v-70h-555v70h155l20 20v550h-615v-550z" />
    <glyph glyph-name="I" unicode="I" horiz-adv-x="735" 
d="M470 90l20 -20h155v-70h-555v70h155l20 20v1175l-20 20h-155v70h555v-70h-155l-20 -20v-1175z" />
    <glyph glyph-name="J" unicode="J" horiz-adv-x="644" 
d="M449 286c0 -322 -129 -444 -431 -478l-54 -6l-27 56l63 12c154 29 244 100 244 300v1095l-20 20h-155v70h535v-70h-135l-20 -20v-979z" />
    <glyph glyph-name="K" unicode="K" horiz-adv-x="1388" 
d="M470 90l20 -20h175v-70h-575v70h155l20 20v1175l-20 20h-155v70h555v-70h-155l-20 -20v-513h20c282 282 318 326 518 513l-20 20h-135v70h439v-70h-135l-20 -20c-223 -223 -257 -255 -505 -493l630 -702h106v-70h-318l-560 635h-20v-545z" />
    <glyph glyph-name="L" unicode="L" horiz-adv-x="1240" 
d="M1210 0h-1120v70h155l20 20v1175l-20 20h-155v70h575v-70h-175l-20 -20v-1149h460c150 0 210 36 210 214v75h70v-405z" />
    <glyph glyph-name="M" unicode="M" horiz-adv-x="1885" 
d="M965 304c177 456 219 560 432 1051h398v-70h-155l-20 -20v-1175l20 -20h155v-70h-575v70h175l20 20v1028h-20c-149 -368 -183 -450 -480 -1138h-40l-495 1092h-15c6 -449 3 -585 -5 -982l20 -20h175v-70h-475v70h155l20 20c-9 472 -9 574 0 1175l-20 20h-145v70h390
l465 -1051h20z" />
    <glyph glyph-name="N" unicode="N" horiz-adv-x="1590" 
d="M1345 386v-386h-80l-885 1103h-16c7 -474 5 -607 -4 -1013l20 -20h175v-70h-475v70h155l20 20c-9 472 -9 574 0 1175l-20 20h-145v70h350l780 -969h20c-9 432 -10 472 0 879l-20 20h-175v70h475v-70h-155l-20 -20c9 -418 8 -488 0 -879z" />
    <glyph glyph-name="O" unicode="O" horiz-adv-x="1450" 
d="M705 -20c-380 0 -645 295 -645 675c0 425 285 720 685 720c380 0 645 -275 645 -680c0 -400 -285 -715 -685 -715zM770 60c260 0 385 225 385 565c0 350 -175 670 -475 670c-270 0 -385 -250 -385 -570c0 -350 175 -665 475 -665z" />
    <glyph glyph-name="P" unicode="P" horiz-adv-x="1235" 
d="M470 615v-525l20 -20h175v-70h-575v70h155l20 20v1175l-20 20h-155v70h580c300 0 505 -125 505 -370s-205 -370 -505 -370h-200zM470 1255v-540h170c180 0 300 70 300 270s-120 270 -300 270h-170z" />
    <glyph glyph-name="Q" unicode="Q" horiz-adv-x="1455" 
d="M705 -20c-380 0 -645 295 -645 675c0 425 285 720 685 720c380 0 645 -275 645 -680c0 -216 -83 -407 -223 -537l155 -155l-63 -63l-161 161c-109 -77 -243 -121 -393 -121zM770 60c109 0 195 40 257 111l-208 208l64 63l182 -182h20c47 94 70 219 70 365
c0 350 -175 670 -475 670c-270 0 -385 -250 -385 -570c0 -350 175 -665 475 -665z" />
    <glyph glyph-name="R" unicode="R" horiz-adv-x="1397" 
d="M480 1255v-520h170c180 0 300 60 300 260s-120 260 -300 260h-170zM1048 0l-548 638h-20v-548l20 -20h165v-70h-575v70h165l20 20v1175l-20 20h-165v70h590c300 0 505 -115 505 -360c0 -239 -198 -329 -459 -329h-10v-20l536 -576h125v-70h-329z" />
    <glyph glyph-name="S" unicode="S" horiz-adv-x="1126" 
d="M164 1036c0 242 186 339 372 339c154 0 270 -65 329 -100h20v80h70v-476h-70v60c0 164 -112 356 -339 356c-124 0 -202 -67 -202 -181c0 -136 93 -190 208 -264l248 -160c140 -90 216 -200 216 -376c0 -204 -176 -334 -426 -334c-180 0 -316 72 -370 99h-20v-80h-70v476
h70v-60c0 -165 130 -355 368 -355c152 0 244 74 244 202c0 119 -47 182 -208 290l-217 146c-120 81 -223 172 -223 338z" />
    <glyph glyph-name="T" unicode="T" horiz-adv-x="1230" 
d="M719 90l20 -20h155v-70h-555v70h155l20 20v1149h-159c-192 0 -245 -19 -245 -189v-61h-70v366h1150v-366h-70v61c0 170 -53 189 -245 189h-156v-1149z" />
    <glyph glyph-name="U" unicode="U" horiz-adv-x="1455" 
d="M741 -20c-303 0 -526 119 -526 530v755l-20 20h-155v70h555v-70h-155l-20 -20v-772c0 -314 150 -403 366 -403c214 0 365 109 364 430c-2 470 -2 530 0 745l-20 20h-150v70h435v-70h-135l-20 -20c2 -257 2 -409 0 -715c-3 -390 -184 -570 -519 -570z" />
    <glyph glyph-name="V" unicode="V" horiz-adv-x="1399" 
d="M120 1265l-20 20h-100v70h546v-70h-180l-20 -20l407 -961h20c153 412 185 506 368 961l-20 20h-140v70h398v-70h-110l-20 -20c-217 -560 -240 -616 -520 -1285h-50z" />
    <glyph glyph-name="W" unicode="W" horiz-adv-x="1929" 
d="M120 1265l-20 20h-100v70h526v-70h-160l-20 -20l320 -919h20c127 358 160 450 219 603l-115 316l-20 20h-100v70h526v-70h-160l-20 -20l320 -919h20c145 412 160 464 315 919l-20 20h-140v70h398v-70h-110l-20 -20c-201 -560 -218 -616 -470 -1285h-50l-290 795h-20
c-64 -167 -124 -322 -310 -795h-50z" />
    <glyph glyph-name="X" unicode="X" horiz-adv-x="1425" 
d="M268 90l20 -20h180v-70h-468v70h120l20 20l460 579l-401 596l-20 20h-160v70h626v-70h-170l-20 -20l287 -427h18c152 198 184 248 330 427l-20 20h-160v70h488v-70h-160l-20 -20l-415 -518l442 -657l20 -20h160v-70h-626v70h170l20 20l-328 488h-19
c-134 -178 -230 -306 -374 -488z" />
    <glyph glyph-name="Y" unicode="Y" horiz-adv-x="1425" 
d="M818 90l20 -20h155v-70h-555v70h155l20 20v524l-444 651l-20 20h-130v70h566v-70h-150l-20 -20l354 -537h19c184 296 220 364 342 537l-20 20h-160v70h448v-70h-140l-20 -20l-420 -651v-524z" />
    <glyph glyph-name="Z" unicode="Z" horiz-adv-x="1190" 
d="M310 90h535c192 0 245 25 245 195v130h70v-415h-1130v70l810 1175v20h-455c-192 0 -245 -25 -245 -195v-100h-70v385h1050v-70l-810 -1175v-20z" />
    <glyph glyph-name="bracketleft" unicode="[" horiz-adv-x="560" 
d="M132 -334v1586h398v-70h-249l-20 -20v-1406l20 -20h249v-70h-398z" />
    <glyph glyph-name="backslash" unicode="\" horiz-adv-x="475" 
d="M465 -20h-75l-380 1395h75z" />
    <glyph glyph-name="bracketright" unicode="]" horiz-adv-x="560" 
d="M428 1252v-1586h-398v70h249l20 20v1406l-20 20h-249v70h398z" />
    <glyph glyph-name="underscore" unicode="_" horiz-adv-x="1031" 
d="M80 -165v70h871v-70h-871z" />
    <glyph glyph-name="grave" unicode="`" horiz-adv-x="570" 
d="M470 1016l-430 265l110 114l380 -379h-60z" />
    <glyph glyph-name="a" unicode="a" horiz-adv-x="913" 
d="M581 700c0 130 -85 174 -175 174c-50 0 -86 -16 -100 -64l-36 -122l-176 -20l-12 26c24 146 158 245 373 245c187 0 318 -69 309 -261l-22 -468c-3 -70 8 -100 56 -100c31 0 56 32 91 70l24 -56c-95 -94 -137 -144 -213 -144c-79 0 -119 56 -119 136v44h-19
c-31 -60 -116 -180 -268 -180c-136 0 -224 85 -224 205c0 220 256 300 511 405v110zM581 495l-20 20c-135 -60 -309 -125 -309 -270c0 -77 42 -111 122 -111c125 0 207 113 207 122v239z" />
    <glyph glyph-name="b" unicode="b" horiz-adv-x="1040" 
d="M252 135h-20v-135h-75v1207l-20 20l-100 -41l-27 55l302 134l20 -20v-575h20c66 86 140 159 268 159c190 0 350 -161 350 -472c0 -287 -198 -487 -412 -487c-152 0 -232 78 -306 155zM332 365c0 -160 82 -316 233 -316c150 0 214 151 214 341c0 258 -85 434 -247 434
c-94 0 -174 -98 -200 -142v-317z" />
    <glyph glyph-name="c" unicode="c" horiz-adv-x="882" 
d="M477 939c197 0 291 -118 318 -225l-12 -26l-176 -20l-56 140c-19 47 -50 64 -100 64c-145 0 -266 -138 -266 -344c0 -218 115 -378 305 -378c199 0 245 150 281 246l41 -30c-14 -114 -107 -386 -372 -386c-253 0 -400 205 -400 463c0 232 135 496 437 496z" />
    <glyph glyph-name="d" unicode="d" horiz-adv-x="1020" 
d="M688 0l10 139h-20c-66 -86 -150 -159 -278 -159c-190 0 -350 161 -350 472c0 287 198 487 412 487c108 0 168 -35 206 -65h20v333l-20 20l-100 -41l-27 55l302 134l20 -20v-1203l20 -20l96 35l21 -54l-292 -133zM488 95c94 0 174 88 200 132v327c0 140 -82 316 -233 316
c-150 0 -214 -151 -214 -341c0 -258 85 -434 247 -434z" />
    <glyph glyph-name="e" unicode="e" horiz-adv-x="892" 
d="M812 366c-14 -114 -107 -386 -372 -386c-253 0 -400 205 -400 463c0 227 135 496 410 496c160 0 348 -79 348 -367h-612c-1 -11 -1 -24 -1 -36c0 -202 98 -386 307 -386c187 0 238 131 279 246zM424 862c-88 0 -198 -60 -230 -225l386 10l20 20c0 113 -59 195 -176 195z
" />
    <glyph glyph-name="f" unicode="f" horiz-adv-x="637" 
d="M198 80v764h-158v75h158c78 247 131 432 328 443l231 13l20 -20l-30 -141h-279c-92 0 -113 -47 -108 -114l13 -181h256v-75h-256v-764l20 -20h153v-60h-491v60h123z" />
    <glyph glyph-name="g" unicode="g" horiz-adv-x="976" 
d="M40 -210l10 30l150 160v20c-60 20 -77 48 -77 105l10 30l167 188v18c-99 49 -174 143 -174 280c0 213 176 318 343 318c42 0 85 -7 125 -20h329v-75h-183v-20c44 -51 72 -118 72 -203c0 -200 -176 -319 -343 -319c-34 0 -69 5 -102 14l-51 -69c-15 -20 -26 -37 -26 -62
c0 -35 31 -50 95 -50h314c118 0 227 -34 227 -184c0 -209 -294 -401 -577 -401c-259 0 -309 132 -309 240zM312 674c0 -210 85 -307 184 -307c90 0 130 84 130 202c0 195 -76 305 -186 305c-77 0 -128 -70 -128 -200zM700 -20h-431l-44 -70c-19 -30 -29 -45 -29 -70
c0 -81 67 -131 234 -131c261 0 420 98 420 207c0 64 -67 64 -150 64z" />
    <glyph glyph-name="h" unicode="h" horiz-adv-x="1035" 
d="M167 80v1127l-20 20l-100 -41l-27 55l302 134l20 -20v-570h20c52 70 123 154 273 154c124 0 237 -81 237 -257v-602l20 -20h113v-60h-441v60h113l20 20v571c0 97 -43 173 -149 173s-185 -96 -206 -132v-612l20 -20h113v-60h-451v60h123z" />
    <glyph glyph-name="i" unicode="i" horiz-adv-x="526" 
d="M160 1157v198h198v-198h-198zM183 80v688l-20 20l-93 -38l-27 55l295 134l20 -20v-839l20 -20h113v-60h-451v60h123z" />
    <glyph glyph-name="j" unicode="j" horiz-adv-x="501" 
d="M161 1157v198h198v-198h-198zM361 919l-18 -870c-5 -247 -208 -470 -348 -480l-124 -9l-21 20l30 141h163c94 0 142 12 140 149l-12 892l-20 20l-93 -38l-27 55l310 140z" />
    <glyph glyph-name="k" unicode="k" horiz-adv-x="962" 
d="M167 80v1127l-20 20l-100 -41l-27 55l302 134l20 -20v-800h20c160 150 185 170 328 284l-20 20h-101v60h383v-60h-122c-157 -135 -192 -164 -334 -277l380 -502l30 -20h56v-60h-412v60h89l20 20l-297 410h-20v-410l20 -20h113v-60h-451v60h123z" />
    <glyph glyph-name="l" unicode="l" horiz-adv-x="485" 
d="M167 80v1127l-20 20l-100 -41l-27 55l302 134l20 -20v-1275l20 -20h113v-60h-451v60h123z" />
    <glyph glyph-name="m" unicode="m" horiz-adv-x="1581" 
d="M183 80v688l-20 20l-93 -38l-27 55l295 134l20 -20l-10 -139h20c52 70 133 159 283 159c98 0 190 -51 224 -159h20c52 70 136 159 286 159c124 0 238 -81 238 -257v-602l20 -20h112v-60h-441v60h113l20 20v571c0 97 -43 173 -149 173s-185 -96 -205 -131v-11v-602l20 -20
h113v-60h-442v60h113l20 20v571c0 97 -43 173 -149 173s-185 -96 -206 -132v-612l20 -20h113v-60h-451v60h123z" />
    <glyph glyph-name="n" unicode="n" horiz-adv-x="1052" 
d="M183 80v688l-20 20l-93 -38l-27 55l298 134l20 -20l-13 -139h20c52 70 133 159 283 159c124 0 238 -81 238 -257v-602l20 -20h113v-60h-442v60h113l20 20v571c0 97 -43 173 -149 173s-185 -96 -206 -132v-612l20 -20h113v-60h-451v60h123z" />
    <glyph glyph-name="o" unicode="o" horiz-adv-x="996" 
d="M50 461c0 273 176 478 443 478s443 -195 443 -478c0 -270 -176 -481 -443 -481s-443 201 -443 481zM251 514c0 -262 85 -464 262 -464c158 0 222 163 222 359c0 245 -78 460 -263 460c-145 0 -221 -145 -221 -355z" />
    <glyph glyph-name="p" unicode="p" horiz-adv-x="1023" 
d="M150 -360v1128l-20 20l-93 -38l-27 55l298 134l20 -20l-13 -139h20c66 86 150 159 278 159c190 0 350 -161 350 -472c0 -287 -198 -487 -412 -487c-108 0 -168 35 -206 65h-20v-405l20 -20h143v-60h-471v60h113zM325 365c0 -140 82 -316 233 -316c150 0 214 151 214 341
c0 258 -85 434 -247 434c-94 0 -174 -88 -200 -132v-327z" />
    <glyph glyph-name="q" unicode="q" horiz-adv-x="1006" 
d="M688 -360v499h-20c-66 -86 -140 -159 -268 -159c-190 0 -350 161 -350 472c0 287 198 487 412 487c152 0 232 -78 306 -155h20v135h75v-1279l20 -20h113v-60h-471v60h143zM488 95c94 0 174 98 200 142v317c0 160 -72 316 -233 316c-150 0 -214 -151 -214 -341
c0 -258 85 -434 247 -434z" />
    <glyph glyph-name="r" unicode="r" horiz-adv-x="695" 
d="M183 80v688l-20 20l-93 -38l-27 55l305 134l20 -20l-20 -174h20c34 85 86 176 196 186l91 8l20 -20l-30 -141h-98c-127 0 -167 -78 -189 -136v-562l20 -20h133v-60h-471v60h123z" />
    <glyph glyph-name="s" unicode="s" horiz-adv-x="800" 
d="M652 643h-65v62c0 90 -83 164 -197 164c-90 0 -140 -44 -140 -121c0 -78 51 -118 160 -174c196 -100 310 -174 310 -339c0 -175 -125 -255 -300 -255c-130 0 -205 50 -235 70h-20v-50h-65v334h65v-39c0 -127 97 -245 255 -245c85 0 140 45 140 125
c0 113 -116 158 -224 219c-137 78 -231 142 -231 297c0 141 113 248 276 248c79 0 144 -24 186 -39h20v39h65v-296z" />
    <glyph glyph-name="t" unicode="t" horiz-adv-x="599" 
d="M335 1127v-208h191v-75h-191v-638c0 -59 16 -96 78 -96s96 44 132 90l24 -56c-46 -56 -124 -164 -240 -164c-114 0 -169 68 -169 220v644h-120l-20 20l295 263h20z" />
    <glyph glyph-name="u" unicode="u" horiz-adv-x="1027" 
d="M466 96c98 0 178 80 208 133v610l-20 20h-108v60h303v-767l20 -20l98 35l20 -53l-296 -134l-20 20l13 139h-20c-61 -88 -146 -159 -275 -159c-116 0 -241 75 -241 249v610l-20 20h-108v60h303v-657c0 -96 47 -166 143 -166z" />
    <glyph glyph-name="v" unicode="v" horiz-adv-x="921" 
d="M828 839l-351 -859h-20l-368 859l-20 20h-69v60h399v-60h-95l-20 -20l224 -561h20l189 561l-20 20h-97v60h321v-60h-73z" />
    <glyph glyph-name="w" unicode="w" horiz-adv-x="1421" 
d="M1324 839l-350 -859h-20l-242 574l-238 -574h-20l-362 859l-20 20h-72v60h399v-60h-91l-20 -20l217 -561h20l137 396l-70 165l-20 20h-72v60h399v-60h-91l-20 -20l217 -561h20l188 561l-20 20h-93v60h321v-60h-77z" />
    <glyph glyph-name="x" unicode="x" horiz-adv-x="995" 
d="M245 80l20 -20h71v-60h-326v60h91l20 20l293 371l-264 388l-20 20h-90v60h431v-60h-91l-20 -20l167 -246h18l165 246l-20 20h-70v60h325v-60h-95l-20 -20l-255 -317l300 -442l20 -20h90v-60h-433v60h93l20 20l-202 298h-17z" />
    <glyph glyph-name="y" unicode="y" horiz-adv-x="1037" 
d="M495 -92c-124 -304 -191 -343 -366 -347l-44 -1l-20 20l30 141h81c160 0 178 29 257 209l36 82l-321 827l-20 20h-98v60h451v-60h-117l-20 -20l199 -594h20l222 594l-21 20h-119v60h392v-60h-121l-20 -20c-74 -168 -209 -461 -263 -594z" />
    <glyph glyph-name="z" unicode="z" horiz-adv-x="890" 
d="M316 60h265c119 0 179 85 199 264h60l-20 -324h-770v20l529 819l-20 20h-180c-109 0 -179 -45 -189 -226h-60v286h692v-20l-526 -819z" />
    <glyph glyph-name="braceleft" unicode="{" horiz-adv-x="681" 
d="M651 -346c-342 0 -388 144 -374 407c11 216 -21 342 -257 362v72c236 20 268 146 257 362c-14 264 32 407 374 407v-70c-221 0 -253 -154 -243 -390c10 -240 -44 -295 -268 -335v-20c224 -40 278 -95 268 -335c-10 -236 22 -390 243 -390v-70z" />
    <glyph glyph-name="bar" unicode="|" horiz-adv-x="230" 
d="M80 1375h70v-1375h-70v1375z" />
    <glyph glyph-name="braceright" unicode="}" horiz-adv-x="681" 
d="M30 -346v70c221 0 252 154 242 390c-10 240 45 295 269 335v20c-224 40 -279 95 -269 335c10 236 -21 390 -242 390v70c342 0 388 -143 374 -407c-11 -216 21 -342 257 -362v-72c-236 -20 -268 -146 -257 -362c14 -263 -32 -407 -374 -407z" />
    <glyph glyph-name="Adieresis" unicode="&#xc4;" horiz-adv-x="1459" 
d="M457 1613v178h178v-178h-178zM789 1613v178h178v-178h-178zM150 90c224 560 252 626 540 1285h50l559 -1285l20 -20h110v-70h-525v70h155l20 20l-141 340h-537c-40 -95 -85 -203 -143 -340l20 -20h155v-70h-413v70h110zM450 530h438v19l-216 519h-20
c-82 -219 -136 -357 -202 -518v-20z" />
    <glyph glyph-name="Aring" unicode="&#xc5;" horiz-adv-x="1459" 
d="M713 1864c114 0 206 -93 206 -205s-92 -205 -206 -205c-118 0 -205 93 -205 205s87 205 205 205zM836 1659c0 70 -51 123 -123 123s-125 -53 -125 -123s53 -125 125 -125s123 55 123 125zM150 90c224 560 252 626 540 1285h50l559 -1285l20 -20h110v-70h-525v70h155
l20 20l-141 340h-537c-40 -95 -85 -203 -143 -340l20 -20h155v-70h-413v70h110zM450 530h438v19l-216 519h-20c-82 -219 -136 -357 -202 -518v-20z" />
    <glyph glyph-name="Ccedilla" unicode="&#xc7;" horiz-adv-x="1338" 
d="M1298 284c-53 -77 -188 -298 -542 -304l-34 -88l20 -20c10 1 19 2 29 2c102 0 168 -58 168 -140c0 -100 -88 -174 -247 -174c-69 0 -125 16 -173 43l24 55c46 -22 86 -30 124 -30c81 0 121 34 121 92c0 52 -37 76 -89 76c-39 0 -54 -7 -68 -12l-20 20l75 178
c-354 26 -626 308 -626 703c0 410 310 690 700 690c245 0 374 -93 385 -100h20v80h70v-476h-70v60c0 195 -147 356 -387 356c-313 0 -483 -275 -483 -600c0 -320 155 -615 507 -615c302 0 406 182 450 256z" />
    <glyph glyph-name="Eacute" unicode="&#xc9;" horiz-adv-x="1310" 
d="M485 1452h-60l380 379l110 -114zM470 660v-544h470c140 0 200 34 200 194v95h70v-405h-1120v70h155l20 20v1175l-20 20h-155v70h1070v-385h-70v90c0 170 -53 179 -245 179h-375v-479h395l20 20v130h70v-400h-70v130l-20 20h-395z" />
    <glyph glyph-name="Ntilde" unicode="&#xd1;" horiz-adv-x="1590" 
d="M1099 1791c-10 -90 -59 -218 -199 -218c-120 0 -169 100 -259 100c-70 0 -101 -60 -101 -110h-59c10 90 60 218 200 218c120 0 168 -99 258 -99c70 0 101 59 101 109h59zM1345 386v-386h-80l-885 1103h-16c7 -474 5 -607 -4 -1013l20 -20h175v-70h-475v70h155l20 20
c-9 472 -9 574 0 1175l-20 20h-145v70h350l780 -969h20c-9 432 -10 472 0 879l-20 20h-175v70h475v-70h-155l-20 -20c9 -418 8 -488 0 -879z" />
    <glyph glyph-name="Odieresis" unicode="&#xd6;" horiz-adv-x="1450" 
d="M470 1613v178h178v-178h-178zM802 1613v178h178v-178h-178zM705 -20c-380 0 -645 295 -645 675c0 425 285 720 685 720c380 0 645 -275 645 -680c0 -400 -285 -715 -685 -715zM770 60c260 0 385 225 385 565c0 350 -175 670 -475 670c-270 0 -385 -250 -385 -570
c0 -350 175 -665 475 -665z" />
    <glyph glyph-name="Udieresis" unicode="&#xdc;" horiz-adv-x="1455" 
d="M473 1613v178h178v-178h-178zM805 1613v178h178v-178h-178zM741 -20c-303 0 -526 119 -526 530v755l-20 20h-155v70h555v-70h-155l-20 -20v-772c0 -314 150 -403 366 -403c214 0 365 109 364 430c-2 470 -2 530 0 745l-20 20h-150v70h435v-70h-135l-20 -20
c2 -257 2 -409 0 -715c-3 -390 -184 -570 -519 -570z" />
    <glyph glyph-name="aacute" unicode="&#xe1;" horiz-adv-x="913" 
d="M262 1016h-60l380 379l110 -114zM581 700c0 130 -85 174 -175 174c-50 0 -86 -16 -100 -64l-36 -122l-176 -20l-12 26c24 146 158 245 373 245c187 0 318 -69 309 -261l-22 -468c-3 -70 8 -100 56 -100c31 0 56 32 91 70l24 -56c-95 -94 -137 -144 -213 -144
c-79 0 -119 56 -119 136v44h-19c-31 -60 -116 -180 -268 -180c-136 0 -224 85 -224 205c0 220 256 300 511 405v110zM581 495l-20 20c-135 -60 -309 -125 -309 -270c0 -77 42 -111 122 -111c125 0 207 113 207 122v239z" />
    <glyph glyph-name="agrave" unicode="&#xe0;" horiz-adv-x="913" 
d="M632 1016l-430 265l110 114l380 -379h-60zM581 700c0 130 -85 174 -175 174c-50 0 -86 -16 -100 -64l-36 -122l-176 -20l-12 26c24 146 158 245 373 245c187 0 318 -69 309 -261l-22 -468c-3 -70 8 -100 56 -100c31 0 56 32 91 70l24 -56c-95 -94 -137 -144 -213 -144
c-79 0 -119 56 -119 136v44h-19c-31 -60 -116 -180 -268 -180c-136 0 -224 85 -224 205c0 220 256 300 511 405v110zM581 495l-20 20c-135 -60 -309 -125 -309 -270c0 -77 42 -111 122 -111c125 0 207 113 207 122v239z" />
    <glyph glyph-name="acircumflex" unicode="&#xe2;" horiz-adv-x="913" 
d="M677 1016l-258 206h-20l-182 -206h-60l240 339h100l240 -339h-60zM581 700c0 130 -85 174 -175 174c-50 0 -86 -16 -100 -64l-36 -122l-176 -20l-12 26c24 146 158 245 373 245c187 0 318 -69 309 -261l-22 -468c-3 -70 8 -100 56 -100c31 0 56 32 91 70l24 -56
c-95 -94 -137 -144 -213 -144c-79 0 -119 56 -119 136v44h-19c-31 -60 -116 -180 -268 -180c-136 0 -224 85 -224 205c0 220 256 300 511 405v110zM581 495l-20 20c-135 -60 -309 -125 -309 -270c0 -77 42 -111 122 -111c125 0 207 113 207 122v239z" />
    <glyph glyph-name="adieresis" unicode="&#xe4;" horiz-adv-x="913" 
d="M192 1177v178h178v-178h-178zM524 1177v178h178v-178h-178zM581 700c0 130 -85 174 -175 174c-50 0 -86 -16 -100 -64l-36 -122l-176 -20l-12 26c24 146 158 245 373 245c187 0 318 -69 309 -261l-22 -468c-3 -70 8 -100 56 -100c31 0 56 32 91 70l24 -56
c-95 -94 -137 -144 -213 -144c-79 0 -119 56 -119 136v44h-19c-31 -60 -116 -180 -268 -180c-136 0 -224 85 -224 205c0 220 256 300 511 405v110zM581 495l-20 20c-135 -60 -309 -125 -309 -270c0 -77 42 -111 122 -111c125 0 207 113 207 122v239z" />
    <glyph glyph-name="atilde" unicode="&#xe3;" horiz-adv-x="913" 
d="M756 1355c-10 -90 -59 -218 -199 -218c-120 0 -169 100 -259 100c-70 0 -101 -60 -101 -110h-59c10 90 60 218 200 218c120 0 168 -99 258 -99c70 0 101 59 101 109h59zM581 700c0 130 -85 174 -175 174c-50 0 -86 -16 -100 -64l-36 -122l-176 -20l-12 26
c24 146 158 245 373 245c187 0 318 -69 309 -261l-22 -468c-3 -70 8 -100 56 -100c31 0 56 32 91 70l24 -56c-95 -94 -137 -144 -213 -144c-79 0 -119 56 -119 136v44h-19c-31 -60 -116 -180 -268 -180c-136 0 -224 85 -224 205c0 220 256 300 511 405v110zM581 495l-20 20
c-135 -60 -309 -125 -309 -270c0 -77 42 -111 122 -111c125 0 207 113 207 122v239z" />
    <glyph glyph-name="aring" unicode="&#xe5;" horiz-adv-x="913" 
d="M447 1428c114 0 206 -93 206 -205s-92 -205 -206 -205c-118 0 -205 93 -205 205s87 205 205 205zM570 1223c0 70 -51 123 -123 123s-125 -53 -125 -123s53 -125 125 -125s123 55 123 125zM581 700c0 130 -85 174 -175 174c-50 0 -86 -16 -100 -64l-36 -122l-176 -20
l-12 26c24 146 158 245 373 245c187 0 318 -69 309 -261l-22 -468c-3 -70 8 -100 56 -100c31 0 56 32 91 70l24 -56c-95 -94 -137 -144 -213 -144c-79 0 -119 56 -119 136v44h-19c-31 -60 -116 -180 -268 -180c-136 0 -224 85 -224 205c0 220 256 300 511 405v110zM581 495
l-20 20c-135 -60 -309 -125 -309 -270c0 -77 42 -111 122 -111c125 0 207 113 207 122v239z" />
    <glyph glyph-name="ccedilla" unicode="&#xe7;" horiz-adv-x="882" 
d="M477 939c197 0 291 -118 318 -225l-12 -26l-176 -20l-56 140c-19 47 -50 64 -100 64c-145 0 -266 -138 -266 -344c0 -218 115 -378 305 -378c199 0 245 150 281 246l41 -30c-14 -112 -105 -379 -361 -386l-34 -88l20 -20c10 1 19 2 29 2c102 0 168 -58 168 -140
c0 -100 -88 -174 -247 -174c-69 0 -125 16 -173 43l24 55c46 -22 86 -30 124 -30c81 0 121 34 121 92c0 52 -37 76 -89 76c-39 0 -54 -7 -68 -12l-20 20l76 180c-217 29 -342 221 -342 459c0 232 135 496 437 496z" />
    <glyph glyph-name="eacute" unicode="&#xe9;" horiz-adv-x="892" 
d="M236 1016h-60l380 379l110 -114zM812 366c-14 -114 -107 -386 -372 -386c-253 0 -400 205 -400 463c0 227 135 496 410 496c160 0 348 -79 348 -367h-612c-1 -11 -1 -24 -1 -36c0 -202 98 -386 307 -386c187 0 238 131 279 246zM424 862c-88 0 -198 -60 -230 -225l386 10
l20 20c0 113 -59 195 -176 195z" />
    <glyph glyph-name="egrave" unicode="&#xe8;" horiz-adv-x="892" 
d="M606 1016l-430 265l110 114l380 -379h-60zM812 366c-14 -114 -107 -386 -372 -386c-253 0 -400 205 -400 463c0 227 135 496 410 496c160 0 348 -79 348 -367h-612c-1 -11 -1 -24 -1 -36c0 -202 98 -386 307 -386c187 0 238 131 279 246zM424 862
c-88 0 -198 -60 -230 -225l386 10l20 20c0 113 -59 195 -176 195z" />
    <glyph glyph-name="ecircumflex" unicode="&#xea;" horiz-adv-x="892" 
d="M651 1016l-258 206h-20l-182 -206h-60l240 339h100l240 -339h-60zM812 366c-14 -114 -107 -386 -372 -386c-253 0 -400 205 -400 463c0 227 135 496 410 496c160 0 348 -79 348 -367h-612c-1 -11 -1 -24 -1 -36c0 -202 98 -386 307 -386c187 0 238 131 279 246zM424 862
c-88 0 -198 -60 -230 -225l386 10l20 20c0 113 -59 195 -176 195z" />
    <glyph glyph-name="edieresis" unicode="&#xeb;" horiz-adv-x="892" 
d="M166 1177v178h178v-178h-178zM498 1177v178h178v-178h-178zM812 366c-14 -114 -107 -386 -372 -386c-253 0 -400 205 -400 463c0 227 135 496 410 496c160 0 348 -79 348 -367h-612c-1 -11 -1 -24 -1 -36c0 -202 98 -386 307 -386c187 0 238 131 279 246zM424 862
c-88 0 -198 -60 -230 -225l386 10l20 20c0 113 -59 195 -176 195z" />
    <glyph glyph-name="iacute" unicode="&#xed;" horiz-adv-x="526" 
d="M82 1016h-60l380 379l110 -114zM183 80v688l-20 20l-93 -38l-27 55l295 134l20 -20v-839l20 -20h113v-60h-451v60h123z" />
    <glyph glyph-name="igrave" unicode="&#xec;" horiz-adv-x="526" 
d="M452 1016l-430 265l110 114l380 -379h-60zM183 80v688l-20 20l-93 -38l-27 55l295 134l20 -20v-839l20 -20h113v-60h-451v60h123z" />
    <glyph glyph-name="icircumflex" unicode="&#xee;" horiz-adv-x="526" 
d="M497 1016l-258 206h-20l-182 -206h-60l240 339h100l240 -339h-60zM183 80v688l-20 20l-93 -38l-27 55l295 134l20 -20v-839l20 -20h113v-60h-451v60h123z" />
    <glyph glyph-name="idieresis" unicode="&#xef;" horiz-adv-x="526" 
d="M12 1177v178h178v-178h-178zM344 1177v178h178v-178h-178zM183 80v688l-20 20l-93 -38l-27 55l295 134l20 -20v-839l20 -20h113v-60h-451v60h123z" />
    <glyph glyph-name="ntilde" unicode="&#xf1;" horiz-adv-x="1052" 
d="M835 1355c-10 -90 -59 -218 -199 -218c-120 0 -169 100 -259 100c-70 0 -101 -60 -101 -110h-59c10 90 60 218 200 218c120 0 168 -99 258 -99c70 0 101 59 101 109h59zM183 80v688l-20 20l-93 -38l-27 55l298 134l20 -20l-13 -139h20c52 70 133 159 283 159
c124 0 238 -81 238 -257v-602l20 -20h113v-60h-442v60h113l20 20v571c0 97 -43 173 -149 173s-185 -96 -206 -132v-612l20 -20h113v-60h-451v60h123z" />
    <glyph glyph-name="oacute" unicode="&#xf3;" horiz-adv-x="996" 
d="M308 1016h-60l380 379l110 -114zM50 461c0 273 176 478 443 478s443 -195 443 -478c0 -270 -176 -481 -443 -481s-443 201 -443 481zM251 514c0 -262 85 -464 262 -464c158 0 222 163 222 359c0 245 -78 460 -263 460c-145 0 -221 -145 -221 -355z" />
    <glyph glyph-name="ograve" unicode="&#xf2;" horiz-adv-x="996" 
d="M678 1016l-430 265l110 114l380 -379h-60zM50 461c0 273 176 478 443 478s443 -195 443 -478c0 -270 -176 -481 -443 -481s-443 201 -443 481zM251 514c0 -262 85 -464 262 -464c158 0 222 163 222 359c0 245 -78 460 -263 460c-145 0 -221 -145 -221 -355z" />
    <glyph glyph-name="ocircumflex" unicode="&#xf4;" horiz-adv-x="996" 
d="M723 1016l-258 206h-20l-182 -206h-60l240 339h100l240 -339h-60zM50 461c0 273 176 478 443 478s443 -195 443 -478c0 -270 -176 -481 -443 -481s-443 201 -443 481zM251 514c0 -262 85 -464 262 -464c158 0 222 163 222 359c0 245 -78 460 -263 460
c-145 0 -221 -145 -221 -355z" />
    <glyph glyph-name="odieresis" unicode="&#xf6;" horiz-adv-x="996" 
d="M238 1177v178h178v-178h-178zM570 1177v178h178v-178h-178zM50 461c0 273 176 478 443 478s443 -195 443 -478c0 -270 -176 -481 -443 -481s-443 201 -443 481zM251 514c0 -262 85 -464 262 -464c158 0 222 163 222 359c0 245 -78 460 -263 460
c-145 0 -221 -145 -221 -355z" />
    <glyph glyph-name="otilde" unicode="&#xf5;" horiz-adv-x="996" 
d="M802 1355c-10 -90 -59 -218 -199 -218c-120 0 -169 100 -259 100c-70 0 -101 -60 -101 -110h-59c10 90 60 218 200 218c120 0 168 -99 258 -99c70 0 101 59 101 109h59zM50 461c0 273 176 478 443 478s443 -195 443 -478c0 -270 -176 -481 -443 -481s-443 201 -443 481z
M251 514c0 -262 85 -464 262 -464c158 0 222 163 222 359c0 245 -78 460 -263 460c-145 0 -221 -145 -221 -355z" />
    <glyph glyph-name="uacute" unicode="&#xfa;" horiz-adv-x="1027" 
d="M320 1016h-60l380 379l110 -114zM466 96c98 0 178 80 208 133v610l-20 20h-108v60h303v-767l20 -20l98 35l20 -53l-296 -134l-20 20l13 139h-20c-61 -88 -146 -159 -275 -159c-116 0 -241 75 -241 249v610l-20 20h-108v60h303v-657c0 -96 47 -166 143 -166z" />
    <glyph glyph-name="ugrave" unicode="&#xf9;" horiz-adv-x="1027" 
d="M690 1016l-430 265l110 114l380 -379h-60zM466 96c98 0 178 80 208 133v610l-20 20h-108v60h303v-767l20 -20l98 35l20 -53l-296 -134l-20 20l13 139h-20c-61 -88 -146 -159 -275 -159c-116 0 -241 75 -241 249v610l-20 20h-108v60h303v-657c0 -96 47 -166 143 -166z" />
    <glyph glyph-name="ucircumflex" unicode="&#xfb;" horiz-adv-x="1027" 
d="M735 1016l-258 206h-20l-182 -206h-60l240 339h100l240 -339h-60zM466 96c98 0 178 80 208 133v610l-20 20h-108v60h303v-767l20 -20l98 35l20 -53l-296 -134l-20 20l13 139h-20c-61 -88 -146 -159 -275 -159c-116 0 -241 75 -241 249v610l-20 20h-108v60h303v-657
c0 -96 47 -166 143 -166z" />
    <glyph glyph-name="udieresis" unicode="&#xfc;" horiz-adv-x="1027" 
d="M250 1177v178h178v-178h-178zM582 1177v178h178v-178h-178zM466 96c98 0 178 80 208 133v610l-20 20h-108v60h303v-767l20 -20l98 35l20 -53l-296 -134l-20 20l13 139h-20c-61 -88 -146 -159 -275 -159c-116 0 -241 75 -241 249v610l-20 20h-108v60h303v-657
c0 -96 47 -166 143 -166z" />
    <glyph glyph-name="dagger" unicode="&#x2020;" horiz-adv-x="1040" 
d="M980 931v-70h-405l-20 -20l30 -841h-130l30 841l-20 20h-405v70h405l20 20l-30 404h130l-30 -404l20 -20h405z" />
    <glyph glyph-name="degree" unicode="&#xb0;" horiz-adv-x="575" 
d="M288 1375c145 0 247 -110 247 -244c0 -133 -102 -243 -247 -243c-150 0 -248 110 -248 243c0 134 98 244 248 244zM450 1131c0 104 -67 177 -162 177c-96 0 -163 -73 -163 -177c0 -103 67 -178 163 -178c95 0 162 75 162 178z" />
    <glyph glyph-name="cent" unicode="&#xa2;" horiz-adv-x="887" 
d="M197 0l67 244c-138 73 -214 232 -214 418c0 232 135 496 437 496c10 0 20 0 30 -1l60 218h75l-62 -229c128 -33 193 -127 215 -213l-12 -26l-176 -20l-50 124h-14l-172 -618c36 -16 75 -24 119 -24c199 0 245 150 281 246l41 -30c-14 -114 -107 -386 -372 -386
c-42 0 -82 6 -118 17l-60 -216h-75zM195 747c0 -133 43 -244 119 -310l-12 17h20l175 633c-11 3 -23 4 -36 4c-145 0 -266 -138 -266 -344z" />
    <glyph glyph-name="sterling" unicode="&#xa3;" horiz-adv-x="999" 
d="M686 644h-230c4 -32 6 -68 6 -107c0 -236 -134 -351 -182 -401v-20h439c140 0 180 66 180 226v63h70v-405h-939v116h67c76 0 181 56 181 204c0 105 -30 204 -53 324h-195v70h182c-9 60 -16 126 -16 200c0 240 106 461 398 461c185 0 276 -91 285 -100h20v80h70v-476h-70
v60c0 195 -113 355 -293 355c-179 0 -210 -135 -210 -266c0 -120 31 -203 51 -314h239v-70z" />
    <glyph glyph-name="section" unicode="&#xa7;" horiz-adv-x="800" 
d="M55 696c0 142 99 198 184 228v20c-54 44 -134 112 -134 229c-1 117 86 202 230 202c100 0 152 -46 175 -62h20v40h65v-334h-65v39c0 127 -67 247 -212 247c-74 0 -107 -38 -107 -103c0 -58 34 -97 101 -149l232 -180c70 -54 116 -128 116 -216c0 -142 -99 -198 -184 -228
v-20c54 -44 134 -112 134 -231c1 -119 -86 -198 -230 -198c-100 0 -152 44 -175 60h-20v-40h-65v334h65v-39c0 -127 67 -245 205 -245c75 0 114 36 114 90c0 69 -34 108 -101 160l-232 180c-70 54 -116 128 -116 216zM226 614l108 -89c38 -30 66 -44 115 -44
c60 0 119 39 119 116c0 68 -32 103 -79 142l-108 89c-38 30 -66 44 -115 44c-60 0 -119 -39 -119 -116c0 -68 32 -103 79 -142z" />
    <glyph glyph-name="bullet" unicode="&#x2022;" horiz-adv-x="590" 
d="M296 235c-130 0 -236 106 -236 236c0 128 106 234 236 234c128 0 234 -106 234 -234c0 -130 -106 -236 -234 -236z" />
    <glyph glyph-name="paragraph" unicode="&#xb6;" horiz-adv-x="1007" 
d="M414 70l20 20v497c-261 0 -414 163 -414 384s153 384 414 384h493v-70h-155l-20 -20v-1175l20 -20h155v-70h-668v70h155zM544 70h98l20 20v1175l-20 20h-98l-20 -20v-1175z" />
    <glyph glyph-name="germandbls" unicode="&#xdf;" horiz-adv-x="1020" 
d="M990 225c0 -145 -111 -245 -255 -245c-115 0 -162 51 -180 70h-20v-50h-65v314h65v-39c0 -127 67 -225 175 -225c70 0 110 45 110 125c0 105 -75 158 -163 219c-130 90 -182 161 -182 266c0 205 175 259 297 259v119c0 128 -55 267 -205 267s-202 -139 -202 -266v-1039
h-318v60h123l20 20v764h-158v75h158c76 256 140 456 375 456c200 0 272 -128 272 -335v-166c-127 0 -217 -49 -217 -139c0 -65 29 -108 114 -170c160 -117 256 -180 256 -340z" />
    <glyph glyph-name="registered" unicode="&#xae;" 
d="M60 678c0 403 292 697 698 697c404 0 698 -294 698 -697c0 -407 -294 -698 -698 -698c-406 0 -698 291 -698 698zM140 678c0 -365 252 -628 618 -628c365 0 618 263 618 628c0 366 -263 627 -618 627c-366 0 -618 -261 -618 -627zM633 1027v-314h102
c109 0 182 36 182 157s-73 157 -182 157h-102zM976 267l-331 386h-12v-331l12 -12h100v-43h-349v43h100l13 12v711l-13 12h-100v43h358c181 0 306 -71 306 -218c0 -145 -120 -200 -279 -200h-6v-12l324 -348h76v-43h-199z" />
    <glyph glyph-name="copyright" unicode="&#xa9;" 
d="M60 678c0 403 292 697 698 697c404 0 698 -294 698 -697c0 -407 -294 -698 -698 -698c-406 0 -698 291 -698 698zM140 678c0 -365 252 -628 618 -628c365 0 618 263 618 628c0 366 -263 627 -618 627c-366 0 -618 -261 -618 -627zM1072 796h-43v36
c0 117 -89 215 -234 215c-189 0 -292 -167 -292 -363c0 -193 93 -372 306 -372c183 0 247 110 272 155l28 -32c-32 -47 -116 -184 -337 -184c-230 0 -412 176 -412 427c0 248 188 418 424 418c149 0 225 -55 233 -61h12v49h43v-288z" />
    <glyph glyph-name="trademark" unicode="&#x2122;" horiz-adv-x="1478" 
d="M369 725l11 -11h79v-36h-285v36h79l11 11v590h-82c-98 0 -126 -10 -126 -97v-57h-36v214h763l238 -541h11c91 235 113 288 222 541h204v-36h-79l-10 -10v-604l10 -11h79v-36h-295v36h90l10 11v528h-10c-76 -189 -94 -231 -247 -585h-21l-253 561h-8
c4 -231 2 -300 -3 -504l11 -11h89v-36h-243v36h79l10 11c-3 191 -4 264 -2 438v55c0 87 -27 97 -125 97h-171v-590z" />
    <glyph glyph-name="acute" unicode="&#xb4;" horiz-adv-x="570" 
d="M100 1016h-60l380 379l110 -114z" />
    <glyph glyph-name="dieresis" unicode="&#xa8;" horiz-adv-x="590" 
d="M40 1177v178h178v-178h-178zM372 1177v178h178v-178h-178z" />
    <glyph glyph-name="AE" unicode="&#xc6;" horiz-adv-x="1828" 
d="M150 90c253 533 285 602 577 1176l-19 19h-155v70h1125v-385h-70v90c0 170 -53 179 -245 179h-295v-479h315l20 20v130h70v-400h-70v130l-20 20h-315v-544h390c140 0 200 34 200 194v95h70v-405h-1040v70h155l20 20v420h-391c-62 -124 -127 -253 -214 -420l20 -20h155
v-70h-413v70h110zM531 610h332v675h-20c-138 -294 -227 -481 -312 -655v-20z" />
    <glyph glyph-name="Oslash" unicode="&#xd8;" horiz-adv-x="1450" 
d="M186 -120l136 222c-163 121 -262 321 -262 553c0 425 285 720 685 720c117 0 223 -26 314 -74l107 174h84l-130 -211c168 -117 270 -318 270 -569c0 -400 -285 -715 -685 -715c-121 0 -230 30 -323 83l-112 -183h-84zM295 725c0 -175 44 -341 125 -464l554 902
c-76 82 -175 132 -294 132c-270 0 -385 -250 -385 -570zM770 60c260 0 385 225 385 565c0 181 -47 354 -133 478l-555 -903c77 -87 180 -140 303 -140z" />
    <glyph glyph-name="plusminus" unicode="&#xb1;" horiz-adv-x="1041" 
d="M980 713v-70h-405l-20 -20v-405h-70v405l-20 20h-405v70h405l20 20v404h70v-404l20 -20h405zM981 70v-70h-921v70h921z" />
    <glyph glyph-name="yen" unicode="&#xa5;" horiz-adv-x="1425" 
d="M818 90l20 -20h155v-70h-555v70h155l20 20v418h-308v70h308v36l-112 164h-196v70h135v20l-271 397l-20 20h-130v70h566v-70h-150l-20 -20l354 -537h19c184 296 220 364 342 537l-20 20h-160v70h448v-70h-140l-20 -20l-256 -397v-20h144v-70h-202l-106 -164v-36h308v-70
h-308v-418z" />
    <glyph glyph-name="ordfeminine" unicode="&#xaa;" horiz-adv-x="669" 
d="M274 1329c-34 0 -59 -11 -70 -43l-27 -82l-128 -16l-9 19c19 95 104 168 263 168c139 0 225 -42 218 -189l-17 -341c-2 -49 8 -96 47 -96c27 0 56 35 82 64l16 -31c-32 -31 -98 -104 -156 -104c-51 0 -80 41 -80 99v32h-14c-22 -44 -85 -131 -193 -131
c-101 0 -165 62 -165 149c0 160 186 218 372 294v80c0 90 -46 128 -139 128zM413 1053l-14 14c-99 -43 -235 -91 -235 -198c0 -65 30 -99 98 -99c92 0 151 103 151 108v175z" />
    <glyph glyph-name="ordmasculine" unicode="&#xba;" horiz-adv-x="703" 
d="M30 1029c0 196 128 346 323 346c192 0 320 -142 320 -346c0 -197 -128 -351 -320 -351c-195 0 -323 147 -323 351zM147 1065c0 -189 81 -336 219 -336c125 0 192 119 192 262c0 176 -77 333 -221 333c-115 0 -190 -106 -190 -259z" />
    <glyph glyph-name="ae" unicode="&#xe6;" horiz-adv-x="1398" 
d="M455 939c109 0 193 -39 244 -112h20c61 63 146 112 257 112c160 0 328 -79 328 -367h-572c-1 -11 -1 -24 -1 -36c0 -202 78 -386 287 -386c187 0 218 131 259 246l41 -30c-14 -114 -87 -386 -352 -386c-163 0 -275 89 -334 218h-20c-32 -66 -126 -218 -316 -218
c-138 0 -225 85 -225 205c0 220 256 300 511 405v110c0 110 -68 174 -168 174c-56 0 -92 -12 -108 -67l-35 -119l-176 -20l-12 26c24 143 155 245 372 245zM950 862c-88 0 -184 -60 -211 -224l347 9l20 20c0 113 -39 195 -156 195zM253 245c0 -77 42 -111 122 -111
c124 0 218 116 231 140c-14 52 -24 110 -24 169v52l-20 20c-135 -60 -309 -125 -309 -270z" />
    <glyph glyph-name="oslash" unicode="&#xf8;" horiz-adv-x="996" 
d="M114 -100l105 171c-107 85 -169 224 -169 390c0 273 176 478 443 478c84 0 159 -19 223 -55l82 135h80l-106 -173c104 -84 164 -219 164 -385c0 -270 -176 -481 -443 -481c-82 0 -155 19 -218 53l-81 -133h-80zM251 514c0 -118 17 -224 52 -304l345 563
c-42 60 -100 96 -176 96c-145 0 -221 -145 -221 -355zM735 409c0 110 -16 214 -50 295l-343 -562c42 -58 99 -92 171 -92c158 0 222 163 222 359z" />
    <glyph glyph-name="questiondown" unicode="&#xbf;" horiz-adv-x="865" 
d="M327 1134h208v-208h-208v208zM476 -264c-309 0 -448 200 -468 379l12 26l176 -20l46 -191c23 -97 78 -128 174 -128c135 0 248 130 248 308c0 239 -164 361 -262 415l-12 24v210h76v-191c141 -72 398 -201 398 -474c0 -242 -175 -358 -388 -358z" />
    <glyph glyph-name="exclamdown" unicode="&#xa1;" horiz-adv-x="408" 
d="M100 919h208v-208h-208v208zM242 544c0 -320 65 -564 65 -1000h-205c0 436 65 680 65 1000h75z" />
    <glyph glyph-name="guillemotleft" unicode="&#xab;" horiz-adv-x="1103" 
d="M533 0l-513 449v20l513 450h70l-375 -450v-20l375 -449h-70zM983 0l-513 449v20l513 450h70l-375 -450v-20l375 -449h-70z" />
    <glyph glyph-name="guillemotright" unicode="&#xbb;" horiz-adv-x="1103" 
d="M500 0l375 449v20l-375 450h70l513 -450v-20l-513 -449h-70zM50 0l375 449v20l-375 450h70l513 -450v-20l-513 -449h-70z" />
    <glyph glyph-name="ellipsis" unicode="&#x2026;" horiz-adv-x="1308" 
d="M100 0v208h208v-208h-208zM500 0v198h208v-198h-208zM900 0v188h208v-188h-208z" />
    <glyph glyph-name="Agrave" unicode="&#xc0;" horiz-adv-x="1459" 
d="M915 1452l-430 265l110 114l380 -379h-60zM150 90c224 560 252 626 540 1285h50l559 -1285l20 -20h110v-70h-525v70h155l20 20l-141 340h-537c-40 -95 -85 -203 -143 -340l20 -20h155v-70h-413v70h110zM450 530h438v19l-216 519h-20c-82 -219 -136 -357 -202 -518v-20z
" />
    <glyph glyph-name="Atilde" unicode="&#xc3;" horiz-adv-x="1459" 
d="M1039 1791c-10 -90 -59 -218 -199 -218c-120 0 -169 100 -259 100c-70 0 -101 -60 -101 -110h-59c10 90 60 218 200 218c120 0 168 -99 258 -99c70 0 101 59 101 109h59zM150 90c224 560 252 626 540 1285h50l559 -1285l20 -20h110v-70h-525v70h155l20 20l-141 340h-537
c-40 -95 -85 -203 -143 -340l20 -20h155v-70h-413v70h110zM450 530h438v19l-216 519h-20c-82 -219 -136 -357 -202 -518v-20z" />
    <glyph glyph-name="Otilde" unicode="&#xd5;" horiz-adv-x="1450" 
d="M1034 1791c-10 -90 -59 -218 -199 -218c-120 0 -169 100 -259 100c-70 0 -101 -60 -101 -110h-59c10 90 60 218 200 218c120 0 168 -99 258 -99c70 0 101 59 101 109h59zM705 -20c-380 0 -645 295 -645 675c0 425 285 720 685 720c380 0 645 -275 645 -680
c0 -400 -285 -715 -685 -715zM770 60c260 0 385 225 385 565c0 350 -175 670 -475 670c-270 0 -385 -250 -385 -570c0 -350 175 -665 475 -665z" />
    <glyph glyph-name="OE" unicode="&#x152;" horiz-adv-x="1800" 
d="M835 1265l-20 20h-105c-300 0 -415 -240 -415 -560c0 -350 175 -655 475 -655h45l20 20v1175zM1040 660v-544h390c140 0 200 34 200 194v95h70v-405h-995c-380 0 -645 275 -645 655c0 425 285 700 675 700h915v-385h-70v90c0 170 -53 179 -245 179h-295v-479h315l20 20
v130h70v-400h-70v130l-20 20h-315z" />
    <glyph glyph-name="oe" unicode="&#x153;" horiz-adv-x="1522" 
d="M1442 366c-14 -114 -87 -386 -352 -386c-148 0 -245 68 -305 164h-20c-69 -101 -177 -164 -312 -164c-247 0 -403 201 -403 481c0 269 155 478 402 478c142 0 254 -62 324 -174h20c62 98 154 174 304 174c160 0 328 -79 328 -367h-572c-1 -11 -1 -24 -1 -36
c0 -202 78 -386 287 -386c187 0 218 131 259 246zM251 514c0 -262 65 -464 222 -464c138 0 182 163 182 359c0 245 -58 460 -223 460c-125 0 -181 -145 -181 -355zM1074 862c-88 0 -184 -60 -211 -224l347 9l20 20c0 113 -39 195 -156 195z" />
    <glyph glyph-name="endash" unicode="&#x2013;" horiz-adv-x="1031" 
d="M80 424v70h871v-70h-871z" />
    <glyph glyph-name="emdash" unicode="&#x2014;" horiz-adv-x="1561" 
d="M80 424v70h1401v-70h-1401z" />
    <glyph glyph-name="quotedblleft" unicode="&#x201c;" horiz-adv-x="878" 
d="M560 1012c0 137 73 253 197 343l31 -52c-97 -78 -134 -150 -134 -234l15 -20h109v-208h-218v171zM190 1012c0 137 73 253 197 343l31 -52c-97 -78 -134 -150 -134 -234l15 -20h109v-208h-218v171z" />
    <glyph glyph-name="quotedblright" unicode="&#x201d;" horiz-adv-x="878" 
d="M318 1184c0 -137 -73 -253 -197 -343l-31 52c97 78 134 150 134 234l-15 20h-109v208h218v-171zM688 1184c0 -137 -73 -253 -197 -343l-31 52c97 78 134 150 134 234l-15 20h-109v208h218v-171z" />
    <glyph glyph-name="quoteleft" unicode="&#x2018;" horiz-adv-x="508" 
d="M190 1032c0 137 73 253 197 343l31 -52c-97 -78 -134 -150 -134 -234l15 -20h109v-208h-218v171z" />
    <glyph glyph-name="quoteright" unicode="&#x2019;" horiz-adv-x="508" 
d="M318 1184c0 -137 -73 -253 -197 -343l-31 52c97 78 134 150 134 234l-15 20h-109v208h218v-171z" />
    <glyph glyph-name="divide" unicode="&#xf7;" horiz-adv-x="1041" 
d="M423 909v198h198v-198h-198zM981 713v-70h-921v70h921zM423 228v198h198v-198h-198z" />
    <glyph glyph-name="ydieresis" unicode="&#xff;" horiz-adv-x="1037" 
d="M276 1177v178h178v-178h-178zM608 1177v178h178v-178h-178zM495 -92c-124 -304 -191 -343 -366 -347l-44 -1l-20 20l30 141h81c160 0 178 29 257 209l36 82l-321 827l-20 20h-98v60h451v-60h-117l-20 -20l199 -594h20l222 594l-21 20h-119v60h392v-60h-121l-20 -20
c-74 -168 -209 -461 -263 -594z" />
    <glyph glyph-name="Ydieresis" unicode="&#x178;" horiz-adv-x="1425" 
d="M458 1613v178h178v-178h-178zM790 1613v178h178v-178h-178zM818 90l20 -20h155v-70h-555v70h155l20 20v524l-444 651l-20 20h-130v70h566v-70h-150l-20 -20l354 -537h19c184 296 220 364 342 537l-20 20h-160v70h448v-70h-140l-20 -20l-420 -651v-524z" />
    <glyph glyph-name="guilsinglleft" unicode="&#x2039;" horiz-adv-x="653" 
d="M533 0l-513 449v20l513 450h70l-375 -450v-20l375 -449h-70z" />
    <glyph glyph-name="guilsinglright" unicode="&#x203a;" horiz-adv-x="653" 
d="M50 0l375 449v20l-375 450h70l513 -450v-20l-513 -449h-70z" />
    <glyph glyph-name="periodcentered" unicode="&#xb7;" horiz-adv-x="508" 
d="M100 355v208h208v-208h-208z" />
    <glyph glyph-name="quotesinglbase" unicode="&#x201a;" horiz-adv-x="508" 
d="M318 37c0 -137 -73 -253 -197 -343l-31 52c97 78 134 150 134 234l-15 20h-109v208h218v-171z" />
    <glyph glyph-name="quotedblbase" unicode="&#x201e;" horiz-adv-x="878" 
d="M318 37c0 -137 -73 -253 -197 -343l-31 52c97 78 134 150 134 234l-15 20h-109v208h218v-171zM688 37c0 -137 -73 -253 -197 -343l-31 52c97 78 134 150 134 234l-15 20h-109v208h218v-171z" />
    <glyph glyph-name="Acircumflex" unicode="&#xc2;" horiz-adv-x="1459" 
d="M960 1452l-258 206h-20l-182 -206h-60l240 339h100l240 -339h-60zM150 90c224 560 252 626 540 1285h50l559 -1285l20 -20h110v-70h-525v70h155l20 20l-141 340h-537c-40 -95 -85 -203 -143 -340l20 -20h155v-70h-413v70h110zM450 530h438v19l-216 519h-20
c-82 -219 -136 -357 -202 -518v-20z" />
    <glyph glyph-name="Ecircumflex" unicode="&#xca;" horiz-adv-x="1310" 
d="M900 1452l-258 206h-20l-182 -206h-60l240 339h100l240 -339h-60zM470 660v-544h470c140 0 200 34 200 194v95h70v-405h-1120v70h155l20 20v1175l-20 20h-155v70h1070v-385h-70v90c0 170 -53 179 -245 179h-375v-479h395l20 20v130h70v-400h-70v130l-20 20h-395z" />
    <glyph glyph-name="Aacute" unicode="&#xc1;" horiz-adv-x="1459" 
d="M545 1452h-60l380 379l110 -114zM150 90c224 560 252 626 540 1285h50l559 -1285l20 -20h110v-70h-525v70h155l20 20l-141 340h-537c-40 -95 -85 -203 -143 -340l20 -20h155v-70h-413v70h110zM450 530h438v19l-216 519h-20c-82 -219 -136 -357 -202 -518v-20z" />
    <glyph glyph-name="Edieresis" unicode="&#xcb;" horiz-adv-x="1310" 
d="M415 1613v178h178v-178h-178zM747 1613v178h178v-178h-178zM470 660v-544h470c140 0 200 34 200 194v95h70v-405h-1120v70h155l20 20v1175l-20 20h-155v70h1070v-385h-70v90c0 170 -53 179 -245 179h-375v-479h395l20 20v130h70v-400h-70v130l-20 20h-395z" />
    <glyph glyph-name="Egrave" unicode="&#xc8;" horiz-adv-x="1310" 
d="M855 1452l-430 265l110 114l380 -379h-60zM470 660v-544h470c140 0 200 34 200 194v95h70v-405h-1120v70h155l20 20v1175l-20 20h-155v70h1070v-385h-70v90c0 170 -53 179 -245 179h-375v-479h395l20 20v130h70v-400h-70v130l-20 20h-395z" />
    <glyph glyph-name="Iacute" unicode="&#xcd;" horiz-adv-x="735" 
d="M183 1452h-60l380 379l110 -114zM470 90l20 -20h155v-70h-555v70h155l20 20v1175l-20 20h-155v70h555v-70h-155l-20 -20v-1175z" />
    <glyph glyph-name="Icircumflex" unicode="&#xce;" horiz-adv-x="735" 
d="M598 1452l-258 206h-20l-182 -206h-60l240 339h100l240 -339h-60zM470 90l20 -20h155v-70h-555v70h155l20 20v1175l-20 20h-155v70h555v-70h-155l-20 -20v-1175z" />
    <glyph glyph-name="Idieresis" unicode="&#xcf;" horiz-adv-x="735" 
d="M113 1613v178h178v-178h-178zM445 1613v178h178v-178h-178zM470 90l20 -20h155v-70h-555v70h155l20 20v1175l-20 20h-155v70h555v-70h-155l-20 -20v-1175z" />
    <glyph glyph-name="Igrave" unicode="&#xcc;" horiz-adv-x="735" 
d="M553 1452l-430 265l110 114l380 -379h-60zM470 90l20 -20h155v-70h-555v70h155l20 20v1175l-20 20h-155v70h555v-70h-155l-20 -20v-1175z" />
    <glyph glyph-name="Oacute" unicode="&#xd3;" horiz-adv-x="1450" 
d="M540 1452h-60l380 379l110 -114zM705 -20c-380 0 -645 295 -645 675c0 425 285 720 685 720c380 0 645 -275 645 -680c0 -400 -285 -715 -685 -715zM770 60c260 0 385 225 385 565c0 350 -175 670 -475 670c-270 0 -385 -250 -385 -570c0 -350 175 -665 475 -665z" />
    <glyph glyph-name="Ocircumflex" unicode="&#xd4;" horiz-adv-x="1450" 
d="M955 1452l-258 206h-20l-182 -206h-60l240 339h100l240 -339h-60zM705 -20c-380 0 -645 295 -645 675c0 425 285 720 685 720c380 0 645 -275 645 -680c0 -400 -285 -715 -685 -715zM770 60c260 0 385 225 385 565c0 350 -175 670 -475 670c-270 0 -385 -250 -385 -570
c0 -350 175 -665 475 -665z" />
    <glyph glyph-name="Ograve" unicode="&#xd2;" horiz-adv-x="1450" 
d="M910 1452l-430 265l110 114l380 -379h-60zM705 -20c-380 0 -645 295 -645 675c0 425 285 720 685 720c380 0 645 -275 645 -680c0 -400 -285 -715 -685 -715zM770 60c260 0 385 225 385 565c0 350 -175 670 -475 670c-270 0 -385 -250 -385 -570
c0 -350 175 -665 475 -665z" />
    <glyph glyph-name="Uacute" unicode="&#xda;" horiz-adv-x="1455" 
d="M543 1452h-60l380 379l110 -114zM741 -20c-303 0 -526 119 -526 530v755l-20 20h-155v70h555v-70h-155l-20 -20v-772c0 -314 150 -403 366 -403c214 0 365 109 364 430c-2 470 -2 530 0 745l-20 20h-150v70h435v-70h-135l-20 -20c2 -257 2 -409 0 -715
c-3 -390 -184 -570 -519 -570z" />
    <glyph glyph-name="Ucircumflex" unicode="&#xdb;" horiz-adv-x="1455" 
d="M958 1452l-258 206h-20l-182 -206h-60l240 339h100l240 -339h-60zM741 -20c-303 0 -526 119 -526 530v755l-20 20h-155v70h555v-70h-155l-20 -20v-772c0 -314 150 -403 366 -403c214 0 365 109 364 430c-2 470 -2 530 0 745l-20 20h-150v70h435v-70h-135l-20 -20
c2 -257 2 -409 0 -715c-3 -390 -184 -570 -519 -570z" />
    <glyph glyph-name="Ugrave" unicode="&#xd9;" horiz-adv-x="1455" 
d="M913 1452l-430 265l110 114l380 -379h-60zM741 -20c-303 0 -526 119 -526 530v755l-20 20h-155v70h555v-70h-155l-20 -20v-772c0 -314 150 -403 366 -403c214 0 365 109 364 430c-2 470 -2 530 0 745l-20 20h-150v70h435v-70h-135l-20 -20c2 -257 2 -409 0 -715
c-3 -390 -184 -570 -519 -570z" />
    <glyph glyph-name="dotlessi" unicode="&#x131;" horiz-adv-x="526" 
d="M183 80v688l-20 20l-93 -38l-27 55l295 134l20 -20v-839l20 -20h113v-60h-451v60h123z" />
    <glyph glyph-name="circumflex" unicode="&#x2c6;" horiz-adv-x="660" 
d="M560 1016l-258 206h-20l-182 -206h-60l240 339h100l240 -339h-60z" />
    <glyph glyph-name="tilde" unicode="&#x2dc;" horiz-adv-x="698" 
d="M658 1355c-10 -90 -59 -218 -199 -218c-120 0 -169 100 -259 100c-70 0 -101 -60 -101 -110h-59c10 90 60 218 200 218c120 0 168 -99 258 -99c70 0 101 59 101 109h59z" />
    <glyph glyph-name="ring" unicode="&#x2da;" horiz-adv-x="491" 
d="M245 1428c114 0 206 -93 206 -205s-92 -205 -206 -205c-118 0 -205 93 -205 205s87 205 205 205zM368 1223c0 70 -51 123 -123 123s-125 -53 -125 -123s53 -125 125 -125s123 55 123 125z" />
    <glyph glyph-name="cedilla" unicode="&#xb8;" horiz-adv-x="500" 
d="M278 -16l-35 -92l20 -20c10 1 19 2 29 2c102 0 168 -58 168 -140c0 -100 -88 -174 -247 -174c-69 0 -125 16 -173 43l24 55c46 -22 86 -30 124 -30c81 0 121 34 121 92c0 52 -37 76 -89 76c-39 0 -54 -7 -68 -12l-20 20l76 180h70z" />
    <glyph glyph-name=".null" horiz-adv-x="500" 
 />
    <glyph glyph-name="thinspace" unicode="&#x2009;" horiz-adv-x="200" 
 />
    <glyph glyph-name="hyphen.cap" horiz-adv-x="620" 
d="M80 628v100h460v-100h-460z" />
    <glyph glyph-name="exclamdown.cap" horiz-adv-x="408" 
d="M100 1355h208v-208h-208v208zM242 980c0 -320 65 -564 65 -1000h-205c0 436 65 680 65 1000h75z" />
    <glyph glyph-name="questiondown.cap" horiz-adv-x="865" 
d="M327 1353h208v-208h-208v208zM476 -45c-309 0 -448 200 -468 379l12 26l176 -20l46 -191c23 -97 78 -128 174 -128c135 0 248 130 248 308c0 239 -164 361 -262 415l-12 24v210h76v-191c141 -72 398 -201 398 -474c0 -242 -175 -358 -388 -358z" />
    <glyph glyph-name="guilsinglleft.cap" horiz-adv-x="653" 
d="M533 219l-513 449v20l513 450h70l-375 -450v-20l375 -449h-70z" />
    <glyph glyph-name="guilsinglright.cap" horiz-adv-x="653" 
d="M50 219l375 449v20l-375 450h70l513 -450v-20l-513 -449h-70z" />
    <glyph glyph-name="guillemotleft.cap" horiz-adv-x="1103" 
d="M533 219l-513 449v20l513 450h70l-375 -450v-20l375 -449h-70zM983 219l-513 449v20l513 450h70l-375 -450v-20l375 -449h-70z" />
    <glyph glyph-name="guillemotright.cap" horiz-adv-x="1103" 
d="M500 219l375 449v20l-375 450h70l513 -450v-20l-513 -449h-70zM50 219l375 449v20l-375 450h70l513 -450v-20l-513 -449h-70z" />
    <glyph glyph-name="endash.cap" horiz-adv-x="1031" 
d="M80 643v70h871v-70h-871z" />
    <glyph glyph-name="emdash.cap" horiz-adv-x="1561" 
d="M80 643v70h1401v-70h-1401z" />
    <glyph glyph-name="periodcentered.cap" horiz-adv-x="508" 
d="M100 574v208h208v-208h-208z" />
    <glyph glyph-name="parenleft.cap" horiz-adv-x="670" 
d="M573 1481l41 -55c-164 -77 -374 -318 -374 -748s210 -671 374 -748l-41 -55c-197 83 -483 373 -483 803s286 720 483 803z" />
    <glyph glyph-name="parenright.cap" horiz-adv-x="670" 
d="M97 1481c197 -83 483 -373 483 -803s-286 -720 -483 -803l-41 55c164 77 374 318 374 748s-210 671 -374 748z" />
    <glyph glyph-name="bracketleft.cap" horiz-adv-x="560" 
d="M132 -218v1586h398v-70h-249l-20 -20v-1406l20 -20h249v-70h-398z" />
    <glyph glyph-name="bracketright.cap" horiz-adv-x="560" 
d="M428 1368v-1586h-398v70h249l20 20v1406l-20 20h-249v70h398z" />
    <glyph glyph-name="braceleft.cap" horiz-adv-x="681" 
d="M651 -127c-342 0 -388 144 -374 407c11 216 -21 342 -257 362v72c236 20 268 146 257 362c-14 264 32 407 374 407v-70c-221 0 -253 -154 -243 -390c10 -240 -44 -295 -268 -335v-20c224 -40 278 -95 268 -335c-10 -236 22 -390 243 -390v-70z" />
    <glyph glyph-name="braceright.cap" horiz-adv-x="681" 
d="M30 -127v70c221 0 252 154 242 390c-10 240 45 295 269 335v20c-224 40 -279 95 -269 335c10 236 -21 390 -242 390v70c342 0 388 -143 374 -407c-11 -216 21 -342 257 -362v-72c-236 -20 -268 -146 -257 -362c14 -263 -32 -407 -374 -407z" />
    <glyph glyph-name="numero" unicode="&#x2116;" horiz-adv-x="2211" 
d="M1345 386v-386h-80l-885 1103h-16c7 -474 5 -607 -4 -1013l20 -20h175v-70h-475v70h155l20 20c-9 472 -9 574 0 1175l-20 20h-145v70h350l780 -969h20c-9 432 -10 472 0 879l-20 20h-175v70h475v-70h-155l-20 -20c9 -418 8 -488 0 -879zM1508 788c0 196 128 346 323 346
c192 0 320 -142 320 -346c0 -197 -128 -351 -320 -351c-195 0 -323 147 -323 351zM1625 824c0 -189 81 -336 219 -336c125 0 192 119 192 262c0 176 -77 333 -221 333c-115 0 -190 -106 -190 -259zM2151 70v-70h-643v70h643z" />
    <glyph glyph-name="Euro" unicode="&#x20ac;" horiz-adv-x="1477" 
d="M1337 138c-111 -98 -274 -158 -453 -158c-344 0 -607 218 -677 528h-187l30 70h142v20c-2 22 -4 45 -4 79s2 58 5 81v20h-173l30 70h158c73 309 343 527 686 527c216 0 342 -65 434 -135v-110c-106 88 -230 155 -444 155c-273 0 -506 -166 -581 -417v-20h927l-30 -70
h-917c-5 -32 -7 -66 -7 -101c0 -34 2 -67 7 -99h871l-30 -70h-821v-20c72 -252 309 -418 581 -418c212 0 338 67 453 178v-110z" />
    <glyph glyph-name="circleddigitzero" 
d="M60 678c0 403 292 697 698 697c404 0 698 -294 698 -697c0 -407 -294 -698 -698 -698c-406 0 -698 291 -698 698zM140 678c0 -365 252 -628 618 -628c365 0 618 263 618 628c0 366 -263 627 -618 627c-366 0 -618 -261 -618 -627zM756 258c-196 0 -277 219 -277 405
c0 255 99 432 281 432c196 0 277 -207 277 -408c0 -240 -99 -429 -281 -429zM765 300c104 0 149 129 149 345c0 234 -41 408 -163 408c-110 0 -149 -144 -149 -348c0 -234 49 -405 163 -405z" />
    <glyph glyph-name="circleddigitone" unicode="&#x2460;" 
d="M60 678c0 403 292 697 698 697c404 0 698 -294 698 -697c0 -407 -294 -698 -698 -698c-406 0 -698 291 -698 698zM140 678c0 -365 252 -628 618 -628c365 0 618 263 618 628c0 366 -263 627 -618 627c-366 0 -618 -261 -618 -627zM713 318v669l-12 12l-96 -47l-16 33
l217 110l12 -12v-765l12 -12h98v-36h-325v36h98z" />
    <glyph glyph-name="circleddigittwo" unicode="&#x2461;" 
d="M60 678c0 403 292 697 698 697c404 0 698 -294 698 -697c0 -407 -294 -698 -698 -698c-406 0 -698 291 -698 698zM140 678c0 -365 252 -628 618 -628c365 0 618 263 618 628c0 366 -263 627 -618 627c-366 0 -618 -261 -618 -627zM518 270v12c227 232 389 379 389 541
c0 103 -58 171 -162 171c-119 0 -174 -84 -195 -148l-25 18c8 68 76 232 257 232c142 0 212 -104 212 -218c0 -184 -180 -362 -331 -504h1l12 -12h172c84 0 114 21 114 117v21h36v-230h-480z" />
    <glyph glyph-name="circleddigitthree" unicode="&#x2462;" 
d="M60 678c0 403 292 697 698 697c404 0 698 -294 698 -697c0 -407 -294 -698 -698 -698c-406 0 -698 291 -698 698zM140 678c0 -365 252 -628 618 -628c365 0 618 263 618 628c0 366 -263 627 -618 627c-366 0 -618 -261 -618 -627zM1001 526c0 -164 -123 -268 -283 -268
c-119 0 -169 43 -203 77v18l73 72l51 -49c42 -41 68 -71 121 -71c82 0 152 63 152 164c0 148 -132 191 -240 197v36c50 11 189 64 189 176c0 71 -40 127 -130 127c-98 0 -144 -73 -168 -135l-25 18c17 68 86 207 245 207c107 0 177 -61 177 -163c0 -85 -64 -136 -118 -176
v-12c49 -16 159 -62 159 -218z" />
    <glyph glyph-name="circleddigitfour" unicode="&#x2463;" 
d="M60 678c0 403 292 697 698 697c404 0 698 -294 698 -697c0 -407 -294 -698 -698 -698c-406 0 -698 291 -698 698zM140 678c0 -365 252 -628 618 -628c365 0 618 263 618 628c0 366 -263 627 -618 627c-366 0 -618 -261 -618 -627zM513 551h266v344h-12l-254 -332v-12z
M441 467v84l425 544l12 -12v-532h137v-84h-137v-197h-99v197h-338z" />
    <glyph glyph-name="circleddigitfive" unicode="&#x2464;" 
d="M60 678c0 403 292 697 698 697c404 0 698 -294 698 -697c0 -407 -294 -698 -698 -698c-406 0 -698 291 -698 698zM140 678c0 -365 252 -628 618 -628c365 0 618 263 618 628c0 366 -263 627 -618 627c-366 0 -618 -261 -618 -627zM745 305c79 0 150 75 150 182
c0 209 -182 263 -353 279l-12 12l141 305h347v-92h-333l-51 -108l12 -12c145 -25 339 -92 339 -321c0 -176 -123 -292 -284 -292c-118 0 -168 43 -203 77v18l73 72l68 -66c36 -35 64 -54 106 -54z" />
    <glyph glyph-name="circleddigitsix" unicode="&#x2465;" 
d="M60 678c0 403 292 697 698 697c404 0 698 -294 698 -697c0 -407 -294 -698 -698 -698c-406 0 -698 291 -698 698zM140 678c0 -365 252 -628 618 -628c365 0 618 263 618 628c0 366 -263 627 -618 627c-366 0 -618 -261 -618 -627zM730 258c-138 0 -268 111 -268 327
c0 307 241 497 506 524l16 -34c-208 -27 -352 -182 -380 -341h12c38 39 80 69 154 69c118 0 224 -87 224 -262c0 -156 -104 -283 -264 -283zM584 574c0 -173 64 -274 156 -274c98 0 134 98 134 215c0 147 -54 224 -160 224c-49 0 -96 -30 -121 -73c-5 -24 -9 -54 -9 -92z
" />
    <glyph glyph-name="circleddigitseven" unicode="&#x2466;" 
d="M60 678c0 403 292 697 698 697c404 0 698 -294 698 -697c0 -407 -294 -698 -698 -698c-406 0 -698 291 -698 698zM140 678c0 -365 252 -628 618 -628c365 0 618 263 618 628c0 366 -263 627 -618 627c-366 0 -618 -261 -618 -627zM694 991c-115 0 -147 -6 -147 -108v-31
h-42v231h494l12 -12l-258 -801h-110l290 709l-12 12h-227z" />
    <glyph glyph-name="circleddigiteight" unicode="&#x2467;" 
d="M60 678c0 403 292 697 698 697c404 0 698 -294 698 -697c0 -407 -294 -698 -698 -698c-406 0 -698 291 -698 698zM140 678c0 -365 252 -628 618 -628c365 0 618 263 618 628c0 366 -263 627 -618 627c-366 0 -618 -261 -618 -627zM625 938c0 -65 35 -114 156 -190
c55 34 114 85 114 176c0 70 -48 129 -139 129c-78 0 -131 -44 -131 -115zM512 447c0 119 80 175 163 227v12c-51 36 -154 109 -154 214c0 138 122 195 239 195c123 0 220 -53 220 -165c0 -104 -79 -151 -162 -202v-12c100 -68 186 -131 186 -250c0 -110 -79 -208 -257 -208
c-131 0 -235 71 -235 189zM764 300c83 0 135 44 135 127c0 95 -67 143 -187 228c-54 -37 -104 -86 -104 -186c0 -141 97 -169 156 -169z" />
    <glyph glyph-name="circleddigitnine" unicode="&#x2468;" 
d="M60 678c0 403 292 697 698 697c404 0 698 -294 698 -697c0 -407 -294 -698 -698 -698c-406 0 -698 291 -698 698zM140 678c0 -365 252 -628 618 -628c365 0 618 263 618 628c0 366 -263 627 -618 627c-366 0 -618 -261 -618 -627zM786 1095c138 0 268 -111 268 -327
c0 -301 -241 -491 -506 -524l-16 34c208 33 352 182 380 341h-12c-38 -39 -80 -69 -154 -69c-118 0 -224 87 -224 262c0 156 104 283 264 283zM642 838c0 -147 54 -224 160 -224c49 0 96 30 121 73c5 24 9 54 9 92c0 173 -64 274 -156 274c-98 0 -134 -98 -134 -215z" />
    <glyph glyph-name="circleddigitten" unicode="&#x2469;" 
d="M60 678c0 403 292 697 698 697c404 0 698 -294 698 -697c0 -407 -294 -698 -698 -698c-406 0 -698 291 -698 698zM140 678c0 -365 252 -628 618 -628c365 0 618 263 618 628c0 366 -263 627 -618 627c-366 0 -618 -261 -618 -627zM483 318v669l-12 12l-96 -47l-16 33
l217 110l12 -12v-765l12 -12h98v-36h-325v36h98zM926 258c-196 0 -277 219 -277 405c0 255 99 432 281 432c196 0 277 -207 277 -408c0 -240 -99 -429 -281 -429zM935 300c104 0 149 129 149 345c0 234 -41 408 -163 408c-110 0 -149 -144 -149 -348
c0 -234 49 -405 163 -405z" />
    <glyph glyph-name="squareddigitzero" 
d="M70 0v1355h1376v-1355h-1376zM140 70h1236v1215h-1236v-1215zM756 258c-196 0 -277 219 -277 405c0 255 99 432 281 432c196 0 277 -207 277 -408c0 -240 -99 -429 -281 -429zM765 300c104 0 149 129 149 345c0 234 -41 408 -163 408c-110 0 -149 -144 -149 -348
c0 -234 49 -405 163 -405z" />
    <glyph glyph-name="squareddigitone" 
d="M70 0v1355h1376v-1355h-1376zM140 70h1236v1215h-1236v-1215zM713 318v669l-12 12l-96 -47l-16 33l217 110l12 -12v-765l12 -12h98v-36h-325v36h98z" />
    <glyph glyph-name="squareddigittwo" 
d="M70 0v1355h1376v-1355h-1376zM140 70h1236v1215h-1236v-1215zM518 270v12c227 232 389 379 389 541c0 103 -58 171 -162 171c-119 0 -174 -84 -195 -148l-25 18c8 68 76 232 257 232c142 0 212 -104 212 -218c0 -184 -180 -362 -331 -504h1l12 -12h172
c84 0 114 21 114 117v21h36v-230h-480z" />
    <glyph glyph-name="squareddigitthree" 
d="M70 0v1355h1376v-1355h-1376zM140 70h1236v1215h-1236v-1215zM1001 526c0 -164 -123 -268 -283 -268c-119 0 -169 43 -203 77v18l73 72l51 -49c42 -41 68 -71 121 -71c82 0 152 63 152 164c0 148 -132 191 -240 197v36c50 11 189 64 189 176c0 71 -40 127 -130 127
c-98 0 -144 -73 -168 -135l-25 18c17 68 86 207 245 207c107 0 177 -61 177 -163c0 -85 -64 -136 -118 -176v-12c49 -16 159 -62 159 -218z" />
    <glyph glyph-name="squareddigitfour" 
d="M70 0v1355h1376v-1355h-1376zM140 70h1236v1215h-1236v-1215zM513 551h266v344h-12l-254 -332v-12zM441 467v84l425 544l12 -12v-532h137v-84h-137v-197h-99v197h-338z" />
    <glyph glyph-name="squareddigitfive" 
d="M70 0v1355h1376v-1355h-1376zM140 70h1236v1215h-1236v-1215zM745 305c79 0 150 75 150 182c0 209 -182 263 -353 279l-12 12l141 305h347v-92h-333l-51 -108l12 -12c145 -25 339 -92 339 -321c0 -176 -123 -292 -284 -292c-118 0 -168 43 -203 77v18l73 72l68 -66
c36 -35 64 -54 106 -54z" />
    <glyph glyph-name="squareddigitsix" 
d="M70 0v1355h1376v-1355h-1376zM140 70h1236v1215h-1236v-1215zM730 258c-138 0 -268 111 -268 327c0 307 241 497 506 524l16 -34c-208 -27 -352 -182 -380 -341h12c38 39 80 69 154 69c118 0 224 -87 224 -262c0 -156 -104 -283 -264 -283zM584 574
c0 -173 64 -274 156 -274c98 0 134 98 134 215c0 147 -54 224 -160 224c-49 0 -96 -30 -121 -73c-5 -24 -9 -54 -9 -92z" />
    <glyph glyph-name="squareddigitseven" 
d="M70 0v1355h1376v-1355h-1376zM140 70h1236v1215h-1236v-1215zM694 991c-115 0 -147 -6 -147 -108v-31h-42v231h494l12 -12l-258 -801h-110l290 709l-12 12h-227z" />
    <glyph glyph-name="squareddigiteight" 
d="M70 0v1355h1376v-1355h-1376zM140 70h1236v1215h-1236v-1215zM625 938c0 -65 35 -114 156 -190c55 34 114 85 114 176c0 70 -48 129 -139 129c-78 0 -131 -44 -131 -115zM512 447c0 119 80 175 163 227v12c-51 36 -154 109 -154 214c0 138 122 195 239 195
c123 0 220 -53 220 -165c0 -104 -79 -151 -162 -202v-12c100 -68 186 -131 186 -250c0 -110 -79 -208 -257 -208c-131 0 -235 71 -235 189zM764 300c83 0 135 44 135 127c0 95 -67 143 -187 228c-54 -37 -104 -86 -104 -186c0 -141 97 -169 156 -169z" />
    <glyph glyph-name="squareddigitnine" 
d="M70 0v1355h1376v-1355h-1376zM140 70h1236v1215h-1236v-1215zM786 1095c138 0 268 -111 268 -327c0 -301 -241 -491 -506 -524l-16 34c208 33 352 182 380 341h-12c-38 -39 -80 -69 -154 -69c-118 0 -224 87 -224 262c0 156 104 283 264 283zM642 838
c0 -147 54 -224 160 -224c49 0 96 30 121 73c5 24 9 54 9 92c0 173 -64 274 -156 274c-98 0 -134 -98 -134 -215z" />
    <glyph glyph-name="squareddigitten" 
d="M70 0v1355h1376v-1355h-1376zM140 70h1236v1215h-1236v-1215zM463 318v669l-12 12l-96 -47l-16 33l217 110l12 -12v-765l12 -12h98v-36h-325v36h98zM906 258c-196 0 -277 219 -277 405c0 255 99 432 281 432c196 0 277 -207 277 -408c0 -240 -99 -429 -281 -429zM915 300
c104 0 149 129 149 345c0 234 -41 408 -163 408c-110 0 -149 -144 -149 -348c0 -234 49 -405 163 -405z" />
    <glyph glyph-name="sunrayswhite" unicode="&#x263c;" horiz-adv-x="1598" 
d="M764 1009v210h70v-210h-70zM1163 873l149 148l49 -49l-148 -149zM287 1020l149 -148l-50 -50l-148 149zM799 -20c-273 0 -479 207 -479 480s206 479 479 479s479 -206 479 -479s-206 -480 -479 -480zM799 50c234 0 410 176 410 410s-176 409 -410 409
s-408 -175 -408 -409s174 -410 408 -410zM1348 494h210v-70h-210v70zM40 494h210v-70h-210v70zM238 -53l148 149l50 -50l-149 -148zM1212 96l148 -149l-49 -49l-149 148zM764 -300v210h70v-210h-70z" />
    <glyph glyph-name="sunbehindcloud" unicode="&#x26c5;" horiz-adv-x="2154" 
d="M1360 1104v210h70v-210h-70zM1759 968l149 148l49 -49l-148 -149zM883 1115l149 -148l-50 -50l-148 149zM1792 279c-4 42 -12 68 -24 95c26 55 37 114 37 181c0 234 -177 417 -411 417c-134 0 -207 -51 -249 -99c-45 -9 -76 -15 -121 -39c83 124 201 200 377 200
c273 0 473 -206 473 -479c0 -104 -30 -199 -82 -276zM1455 580c175 -26 294 -167 294 -338c0 -191 -153 -342 -340 -342h-1127c-155 0 -242 111 -242 242s107 240 272 240h42l10 10c26 186 179 300 353 300c72 0 143 -17 195 -62l10 10c16 125 128 199 263 199
c140 0 260 -107 270 -259zM404 301l-10 -10c-34 25 -66 35 -112 35c-107 0 -172 -79 -172 -184c0 -106 66 -172 172 -172h1127c158 0 270 110 270 272c0 163 -111 276 -270 276c-163 0 -296 -111 -296 -276h-70c0 186 165 328 343 338l10 10c-17 116 -96 182 -211 182
c-124 0 -224 -80 -224 -204v-30l-10 -10c-70 58 -149 98 -234 98c-162 0 -307 -123 -313 -325zM1944 589h210v-70h-210v70zM1808 191l148 -149l-49 -49l-149 148z" />
    <glyph glyph-name="cloud" unicode="&#x2601;" horiz-adv-x="1789" 
d="M1455 680c175 -26 294 -167 294 -338c0 -191 -153 -342 -340 -342h-1127c-155 0 -242 111 -242 242s107 240 272 240h42l10 10c26 186 179 300 353 300c72 0 143 -17 195 -62l10 10c16 125 128 199 263 199c140 0 260 -107 270 -259zM404 401l-10 -10
c-34 25 -66 35 -112 35c-107 0 -172 -79 -172 -184c0 -106 66 -172 172 -172h1127c158 0 270 110 270 272c0 163 -111 276 -270 276c-163 0 -296 -111 -296 -276h-70c0 186 165 328 343 338l10 10c-17 116 -96 182 -211 182c-124 0 -224 -80 -224 -204v-30l-10 -10
c-70 58 -149 98 -234 98c-162 0 -307 -123 -313 -325z" />
    <glyph glyph-name="umbrella" unicode="&#x2602;" horiz-adv-x="1789" 
d="M1455 875c175 -26 294 -167 294 -338c0 -191 -153 -342 -340 -342h-1127c-155 0 -242 111 -242 242s107 240 272 240h42l10 10c26 186 179 300 353 300c72 0 143 -17 195 -62l10 10c16 125 128 199 263 199c140 0 260 -107 270 -259zM404 596l-10 -10
c-34 25 -66 35 -112 35c-107 0 -172 -79 -172 -184c0 -106 66 -172 172 -172h1127c158 0 270 110 270 272c0 163 -111 276 -270 276c-163 0 -296 -111 -296 -276h-70c0 186 165 328 343 338l10 10c-17 116 -96 182 -211 182c-124 0 -224 -80 -224 -204v-30l-10 -10
c-70 58 -149 98 -234 98c-162 0 -307 -123 -313 -325zM142 -164l200 289h80l-200 -289h-80zM647 -164l200 289h80l-200 -289h-80zM1152 -164l200 289h80l-200 -289h-80z" />
    <glyph glyph-name="J.ss02" horiz-adv-x="810" 
d="M615 0h-205v1265l-20 20h-155v70h535v-70h-135l-20 -20v-1265zM52 0v198h198v-198h-198z" />
    <glyph glyph-name="ER.ss06" horiz-adv-x="2115" 
d="M1140 1265l-20 20h-80v-315h-70v90c0 170 -53 179 -245 179h-255v-479h650l20 20v485zM1345 1255v-520h170c180 0 300 60 300 260s-120 260 -300 260h-170zM1913 0l-548 638h-20v-548l20 -20h165v-70h-1440v70h155l20 20v1175l-20 20h-155v70h1455
c300 0 505 -115 505 -360c0 -239 -198 -329 -459 -329h-10v-20l536 -576h125v-70h-329zM470 660v-544h470c140 0 200 34 200 194v330l-20 20h-650z" />
    <glyph glyph-name="seven.ss02" horiz-adv-x="882" 
d="M824 1355h64c-290 -615 -392 -1025 -440 -1355h-218c110 460 268 750 594 1355zM100 916v439h439v-439h-439z" />
    <glyph glyph-name="v.ss02" horiz-adv-x="960" 
d="M620 0h-170l-361 839l-20 20h-69v60h399v-60h-95l-20 -20zM702 721v198h198v-198h-198z" />
    <glyph glyph-name="slash.01" horiz-adv-x="685" 
d="M437 1157v198h198v-198h-198zM238 580v198h198v-198h-198zM40 0v198h198v-198h-198z" />
    <glyph glyph-name="i.ss01" horiz-adv-x="526" 
d="M160 1037v198h198v-198h-198zM183 80v688l-20 20l-93 -38l-27 55l295 134l20 -20v-839l20 -20h113v-60h-451v60h123z" />
    <glyph glyph-name="at.ss02" horiz-adv-x="1622" 
d="M627 159v439h439v-371h3c123 0 399 -19 399 365c0 297 -258 472 -566 472c-348 0 -673 -228 -672 -651c1 -363 277 -585 605 -585s495 146 510 157l37 -58c-12 -9 -226 -169 -571 -169s-731 223 -731 640c0 447 351 736 807 736c408 0 655 -240 655 -546
c0 -379 -299 -428 -476 -429h-439z" />
    <glyph glyph-name="b.ss01" horiz-adv-x="1040" 
d="M252 135h-20v-135h-75v1067l-20 20l-100 -41l-27 55l302 134l20 -20v-435h20c66 86 140 159 268 159c190 0 350 -161 350 -472c0 -287 -198 -487 -412 -487c-152 0 -232 78 -306 155zM332 365c0 -160 82 -316 233 -316c150 0 214 151 214 341c0 258 -85 434 -247 434
c-94 0 -174 -98 -200 -142v-317z" />
    <glyph glyph-name="fwd:ampersand" horiz-adv-x="1412" 
d="M1001 -20c-103 0 -172 22 -274 125c-96 -76 -205 -125 -331 -125c-196 0 -346 88 -346 298c0 208 184 300 299 338c-29 64 -45 128 -45 196c0 172 112 333 328 333c124 0 242 -61 242 -215c0 -174 -190 -274 -314 -315c53 -94 134 -187 224 -296c7 -9 15 -18 22 -26
c146 164 250 412 306 537l-20 20h-150v70h470v-70h-172l-30 -20c-78 -153 -190 -406 -352 -597c102 -110 158 -138 242 -138c76 0 134 67 182 125l24 -56c-59 -68 -147 -184 -305 -184zM490 850c0 -61 14 -119 39 -175h18c127 47 217 114 217 243c0 86 -40 147 -128 147
c-96 0 -146 -65 -146 -215zM653 167v19c-20 24 -42 50 -65 80c-85 108 -156 198 -206 285h-18c-77 -39 -120 -95 -120 -191c0 -148 116 -230 268 -230c50 0 97 14 141 37z" />
    <glyph glyph-name="checkbox" unicode="&#x2610;" horiz-adv-x="999" 
d="M959 0h-919v919h919v-919zM889 70v779h-779v-779h779z" />
    <glyph glyph-name="Udieresis.ss01" horiz-adv-x="1455" 
d="M741 -20c-303 0 -526 119 -526 530v755l-20 20h-155v70h555v-70h-155l-20 -20v-772c0 -314 150 -403 366 -403c214 0 365 109 364 430c-2 470 -2 530 0 745l-20 20h-150v70h435v-70h-135l-20 -20c2 -257 2 -409 0 -715c-3 -390 -184 -570 -519 -570zM695 1177v178h178
v-178h-178zM696 877v178h178v-178h-178z" />
    <glyph glyph-name="velvetyne" horiz-adv-x="2302" 
d="M729 -20h-50l-559 1285l-20 20h-100v70h546v-70h-180l-20 -20l407 -961h20c157 398 202 482 394 935h-73c-192 0 -245 -19 -245 -189v-80h-70v385h1255v-385h-70v80c0 170 -53 189 -245 189h-225v-479h245l20 20v130h70v-400h-70v130l-20 20h-245v-570l20 -20h175v-70
h-575v70h155l20 20v1149h-20c-236 -576 -252 -604 -540 -1259z" />
    <glyph glyph-name="CC.ss06" horiz-adv-x="1858" 
d="M1298 284c-24 -35 -66 -100 -137 -161v-19c48 -16 102 -24 161 -24c302 0 406 182 450 256l46 -52c-54 -78 -192 -304 -558 -304c-91 0 -177 17 -256 48c-71 -29 -158 -48 -264 -48c-380 0 -680 290 -680 705c0 410 310 690 700 690c114 0 203 -20 267 -42
c78 27 163 42 253 42c245 0 374 -93 385 -100h20v80h70v-476h-70v60c0 195 -147 356 -387 356c-22 0 -43 -1 -63 -4v-412h-70v60c0 106 -43 202 -121 267h-18c-138 -107 -211 -298 -211 -511c0 -230 80 -447 255 -551c105 60 155 146 182 192zM295 695
c0 -320 155 -615 507 -615c22 0 44 1 64 3v19c-174 122 -286 329 -286 583c0 256 121 461 306 579v19c-33 8 -69 12 -108 12c-313 0 -483 -275 -483 -600z" />
    <glyph glyph-name="eacute.ss01" horiz-adv-x="892" 
d="M440 -20c-253 0 -400 205 -400 463c0 82 16 155 43 204h497l20 20c0 148 -54 219 -184 219c-46 0 -78 -13 -106 -30h-60l380 379l110 -114l-288 -165v-20c170 -12 346 -89 346 -364h-612c-1 -12 -1 -24 -1 -36c0 -202 98 -386 307 -386c187 0 238 131 279 246l41 -30
c-14 -114 -107 -386 -372 -386z" />
    <glyph glyph-name="Adieresis.ss01" horiz-adv-x="1459" 
d="M150 90c224 560 252 626 540 1285h50l559 -1285l20 -20h110v-70h-525v70h155l20 20l-141 340h-537c-40 -95 -85 -203 -143 -340l20 -20h155v-70h-413v70h110zM327 1177v178h178v-178h-178zM919 1177v178h178v-178h-178zM450 530h438v19l-216 519h-20
c-82 -219 -136 -357 -202 -518v-20z" />
    <glyph glyph-name="n.ss03" horiz-adv-x="863" 
d="M255 0h-175v919h703v-919h-175v844h-353v-844z" />
    <glyph glyph-name="j.ss01" horiz-adv-x="501" 
d="M161 1037v198h198v-198h-198zM361 919l-18 -670c-5 -247 -208 -483 -368 -485l-312 -4l-21 20l30 141h371c94 0 142 12 140 149l-12 692l-20 20l-93 -38l-27 55l310 140z" />
    <glyph glyph-name="u.ss03" horiz-adv-x="863" 
d="M255 919v-844h353v844h175v-919h-703v919h175z" />
    <glyph glyph-name="p.ss01" horiz-adv-x="1023" 
d="M150 -150v918l-20 20l-93 -38l-27 55l298 134l20 -20l-13 -139h20c66 86 150 159 278 159c190 0 350 -161 350 -472c0 -287 -198 -487 -412 -487c-108 0 -168 35 -206 65h-20v-195l20 -20h143v-60h-471v60h113zM325 365c0 -140 82 -316 233 -316c150 0 214 151 214 341
c0 258 -85 434 -247 434c-94 0 -174 -88 -200 -132v-327z" />
    <glyph glyph-name="y.ss01" horiz-adv-x="1037" 
d="M525 -17c-54 -131 -87 -217 -262 -219l-298 -4l-20 20l30 141h281c160 0 173 4 193 48l20 43l-321 827l-20 20h-98v60h451v-60h-117l-20 -20l199 -594h20l222 594l-21 20h-119v60h392v-60h-121l-20 -20c-74 -168 -209 -462 -263 -594z" />
    <glyph glyph-name="ampersand.01" horiz-adv-x="1198" 
d="M817 171c-69 -59 -199 -191 -413 -191c-194 0 -354 108 -354 324c0 246 203 361 371 449c-28 50 -69 134 -69 257c0 200 138 365 346 365c132 0 256 -61 256 -235c0 -161 -153 -264 -278 -334l-184 -104c-130 -74 -228 -126 -228 -322s108 -306 256 -306
c118 0 190 76 190 178c0 47 -16 100 -40 134l-172 239h230l470 -625h-230l-131 171h-20zM542 1070c0 -102 24 -170 56 -239h20c148 85 226 191 226 307c0 96 -48 157 -136 157c-96 0 -166 -75 -166 -225z" />
    <glyph glyph-name="ampersand.03" horiz-adv-x="1412" 
d="M274 554h436l235 183h20v-183h250v-65h-250v-283c0 -59 16 -96 78 -96s96 44 132 90l24 -56c-46 -56 -124 -164 -240 -164c-114 0 -169 68 -169 220v19h-20c-48 -115 -167 -239 -330 -239c-253 0 -400 205 -400 463c0 232 135 496 437 496c197 0 291 -118 318 -225
l-12 -26l-176 -20l-56 140c-19 47 -50 64 -100 64c-145 0 -266 -138 -266 -344c0 -218 115 -378 305 -378c188 0 289 135 300 256v83h-516v65z" />
    <glyph glyph-name="ampersand.02" horiz-adv-x="957" 
d="M430 1375h20v175h70v-181c167 -21 255 -94 255 -94h20v80h70v-476h-70v60c0 181 -123 356 -327 356c-126 0 -213 -86 -213 -246c0 -202 172 -299 376 -299h48v-65h-56c-254 0 -388 -110 -388 -304c0 -211 143 -301 329 -301c200 0 300 146 348 221l46 -52
c-46 -66 -163 -251 -438 -268v-176h-70v176c-230 7 -450 105 -450 359c0 238 216 321 323 341v20c-97 20 -283 91 -283 329c0 235 200 345 390 345z" />
    <glyph glyph-name="ST.ss06" horiz-adv-x="2075" 
d="M164 1036c0 242 186 339 372 339c154 0 270 -65 329 -100h20v80h1150v-366h-70v61c0 170 -53 189 -245 189h-156v-1149l20 -20h155v-70h-555v70h155l20 20v1149h-159c-192 0 -245 -19 -245 -189v-171h-70v60c0 164 -112 356 -339 356c-124 0 -202 -67 -202 -181
c0 -136 93 -190 208 -264l248 -160c140 -90 216 -200 216 -376c0 -204 -176 -334 -426 -334c-180 0 -316 72 -370 99h-20v-80h-70v476h70v-60c0 -165 130 -355 368 -355c152 0 244 74 244 202c0 119 -47 182 -208 290l-217 146c-120 81 -223 172 -223 338z" />
    <glyph glyph-name="d.ss01" horiz-adv-x="1020" 
d="M688 0l10 139h-20c-66 -86 -150 -159 -278 -159c-190 0 -350 161 -350 472c0 287 198 487 412 487c108 0 168 -35 206 -65h20v193l-20 20l-100 -41l-27 55l302 134l20 -20v-1063l20 -20l96 35l21 -54l-292 -133zM488 95c94 0 174 88 200 132v327c0 140 -82 316 -233 316
c-150 0 -214 -151 -214 -341c0 -258 85 -434 247 -434z" />
    <glyph glyph-name="one.ss03" horiz-adv-x="705" 
d="M307 80v1215h-207v60h382v-1275l20 -20h163v-60h-541v60h163z" />
    <glyph glyph-name="g.ss02" horiz-adv-x="976" 
d="M257 480v439h439v-439h-439zM40 -210l10 30l150 160v20c-60 20 -77 48 -77 105l10 30l167 188l70 -3l-54 -73c-15 -20 -26 -37 -26 -62c0 -35 31 -50 95 -50h314c118 0 227 -34 227 -184c0 -209 -294 -401 -577 -401c-259 0 -309 132 -309 240zM700 -20h-431l-44 -70
c-19 -30 -29 -45 -29 -70c0 -81 67 -131 234 -131c261 0 420 98 420 207c0 64 -67 64 -150 64z" />
    <glyph glyph-name="g.ss01" horiz-adv-x="926" 
d="M20 541c0 213 166 398 423 398c51 0 99 -7 143 -20h347v-75h-183v-20c74 -71 116 -171 116 -283c0 -210 -166 -401 -423 -401c-120 0 -237 -16 -237 -128c0 -62 52 -91 136 -91h571l20 -20l-30 -141l-676 10c-143 1 -197 68 -197 145c0 126 113 185 220 245v20
c-144 65 -230 203 -230 361zM221 594c0 -202 75 -384 242 -384c148 0 202 143 202 279c0 185 -68 380 -243 380c-135 0 -201 -125 -201 -275z" />
    <glyph glyph-name="Eacute.ss01" horiz-adv-x="1310" 
d="M470 660v-544h470c140 0 200 34 200 194v95h70v-405h-1120v70h155l20 20v1175l-20 20h-155v70h380v-595h395l20 20v130h70v-400h-70v130l-20 20h-395zM657 972h-60l380 379l110 -114z" />
    <glyph glyph-name="IKOB" horiz-adv-x="3595" 
d="M3455 1005c0 -171 -145 -257 -266 -280v-20c159 -45 306 -131 306 -331c0 -234 -205 -374 -505 -374h-845c-460 0 -725 275 -725 655c0 425 285 720 685 720c60 0 117 -7 171 -20h674c300 0 505 -115 505 -350zM470 90l20 -20h818l-552 626c351 343 392 382 612 569
l-20 20h-858l-20 -20v-1175zM3260 374c0 190 -120 276 -300 276h-445c-5 344 -179 645 -475 645c-270 0 -385 -250 -385 -570c0 -350 211 -625 555 -625h750c180 0 300 84 300 274zM2920 1255h-427c148 -109 242 -286 255 -505h172c180 0 300 65 300 255s-120 250 -300 250z
M1688 70v-70h-1598v70h155l20 20v1175l-20 20h-155v70h1598v-70h-171l-20 -20c-243 -223 -277 -255 -545 -493l630 -702h106z" />
    <glyph glyph-name="checkboxchecked" unicode="&#x2611;" horiz-adv-x="999" 
d="M959 0h-919v919h919v-919zM889 70v779h-779v-779h779zM270 458l132 -228h20l307 548h90l-374 -638h-70l-195 318h90z" />
    <glyph glyph-name="IKOB_logo" horiz-adv-x="1437" 
d="M1368 738l-531 279v-280h-58v618h58v-286l531 286l28 -51l-492 -260l492 -255zM43 737v58h280v502h-280v58h616v-58h-278v-502h278v-58h-616zM779 618h444c112 0 174 -76 174 -169c0 -50 -21 -102 -74 -139c54 -36 74 -89 74 -141c0 -93 -71 -169 -174 -169h-444v618z
M349 0c-170 0 -309 139 -309 309c0 171 139 309 309 309s309 -138 309 -309c0 -170 -139 -309 -309 -309zM837 560v-222h386c71 0 115 50 115 111s-36 111 -115 111h-386zM349 58c139 0 251 113 251 251c0 139 -112 251 -251 251s-251 -112 -251 -251
c0 -138 112 -251 251 -251zM1223 280h-386v-222h386c71 0 115 50 115 111s-36 111 -115 111z" />
    <glyph glyph-name="k.ss02" horiz-adv-x="962" 
d="M167 80v1127l-20 20l-100 -41l-27 55l302 134l20 -20v-800h170l364 -475l30 -20h56v-60h-412v60h89l20 20l-297 410h-20v-410l20 -20h113v-60h-451v60h123zM652 721v198h198v-198h-198z" />
    <glyph glyph-name="k.ss01" horiz-adv-x="962" 
d="M167 80v987l-20 20l-100 -41l-27 55l302 134l20 -20v-1135l20 -20h113v-60h-451v60h123zM962 60v-60h-412v60h89l20 20l-297 380v24l170 198c43 50 68 100 68 128c0 25 -15 49 -70 49h-100v60h522v-60h-122c-157 -155 -202 -194 -354 -337l400 -442l30 -20h56z" />
    <glyph glyph-name="agrave.ss01" horiz-adv-x="925" 
d="M581 700c0 130 -85 174 -175 174c-50 0 -86 -16 -100 -64l-36 -122l-176 -20l-12 26c24 146 158 245 373 245c23 0 44 -1 65 -3v20l-300 165l110 114l367 -366c44 -44 71 -103 67 -191l-22 -468c-3 -70 8 -100 56 -100c31 0 56 32 91 70l24 -56
c-95 -94 -137 -144 -213 -144c-79 0 -119 56 -119 136v44h-19c-31 -60 -116 -180 -268 -180c-136 0 -224 85 -224 205c0 220 256 300 511 405v110zM581 495l-20 20c-135 -60 -309 -125 -309 -270c0 -77 42 -111 122 -111c125 0 207 113 207 122v239z" />
    <glyph glyph-name="f.ss01" horiz-adv-x="637" 
d="M198 80v764h-158v75h158c138 237 150 287 258 293l401 23l20 -20l-30 -141h-399c-92 0 -108 -50 -88 -114l13 -41h256v-75h-256v-764l20 -20h153v-60h-491v60h123z" />
    <glyph glyph-name="f.ss03" horiz-adv-x="558" 
d="M162 80v764h-152v75h152v436h418v-60h-243v-376h201v-75h-201v-764l20 -20h133v-60h-471v60h123z" />
    <glyph glyph-name="www" horiz-adv-x="2421" 
d="M2324 839l-350 -859h-20l-242 574l-238 -574h-20l-242 574l-238 -574h-20l-242 574l-238 -574h-20l-362 859l-20 20h-72v60h399v-60h-91l-20 -20l217 -561h20l137 396l-70 165l-20 20h-72v60h399v-60h-91l-20 -20l217 -561h20l137 396l-70 165l-20 20h-72v60h399v-60h-91
l-20 -20l217 -561h20l137 396l-70 165l-20 20h-72v60h399v-60h-91l-20 -20l217 -561h20l188 561l-20 20h-93v60h321v-60h-77z" />
    <glyph glyph-name="Edieresis.ss01" horiz-adv-x="1310" 
d="M470 660v-544h470c140 0 200 34 200 194v95h70v-405h-1120v70h155l20 20v1175l-20 20h-155v70h380v-595h395l20 20v130h70v-400h-70v130l-20 20h-395zM635 1177v178h178v-178h-178zM967 1177v178h178v-178h-178z" />
    <glyph glyph-name="h.ss01" horiz-adv-x="1035" 
d="M167 80v987l-20 20l-100 -41l-27 55l302 134l20 -20v-430h20c52 70 123 154 273 154c124 0 237 -81 237 -257v-602l20 -20h113v-60h-441v60h113l20 20v571c0 97 -43 173 -149 173s-185 -96 -206 -132v-612l20 -20h113v-60h-451v60h123z" />
    <glyph glyph-name="l.ss01" horiz-adv-x="485" 
d="M167 80v987l-20 20l-100 -41l-27 55l302 134l20 -20v-1135l20 -20h113v-60h-451v60h123z" />
    <glyph glyph-name="r.ss02" horiz-adv-x="706" 
d="M183 80v688l-20 20l-93 -38l-27 55l295 134l20 -20v-839l20 -20h133v-60h-471v60h123zM488 721v198h198v-198h-198z" />
    <glyph glyph-name="three.ss02" horiz-adv-x="933" 
d="M902 440c0 -286 -225 -460 -522 -460c-198 0 -281 72 -339 128v30l122 120l85 -82c70 -68 114 -118 202 -118c167 0 303 106 303 294c0 268 -221 318 -422 328l-10 20l467 655h94l-361 -498v-20c125 -17 381 -81 381 -397zM132 1157v198h198v-198h-198z" />
    <glyph glyph-name="EL.ss06" horiz-adv-x="2115" 
d="M2085 0h-1995v70h155l20 20v1175l-20 20h-155v70h1450v-70h-175l-20 -20v-1149h460c150 0 210 36 210 214v75h70v-405zM1140 1265l-20 20h-80v-315h-70v90c0 170 -53 179 -245 179h-255v-479h650l20 20v485zM470 660v-544h470c140 0 200 34 200 194v330l-20 20h-650z" />
    <glyph glyph-name="t.ss03" horiz-adv-x="600" 
d="M10 844v75h152v208h175v-208h201v-75h-201v-784h243v-60h-418v844h-152z" />
    <glyph glyph-name="Odieresis.ss01" horiz-adv-x="1450" 
d="M769 1374v-94c-20 12 -76 15 -90 15v75c8 3 37 5 66 5c15 0 29 -1 24 -1zM648 1355v-178h-178v178h178zM980 1355v-178h-178v178h178zM437 1308v-103c-92 -87 -142 -269 -142 -480c0 -350 175 -665 475 -665c260 0 385 225 385 565c0 202 -54 394 -141 510v187
c224 -82 376 -316 376 -627c0 -400 -285 -715 -685 -715c-380 0 -645 295 -645 675c0 314 156 557 377 653z" />
    <glyph glyph-name="q.ss01" horiz-adv-x="1006" 
d="M688 -150v289h-20c-66 -86 -140 -159 -268 -159c-190 0 -350 161 -350 472c0 287 198 487 412 487c152 0 232 -78 306 -155h20v135h75v-1069l20 -20h113v-60h-471v60h143zM488 95c94 0 174 98 200 142v317c0 160 -72 316 -233 316c-150 0 -214 -151 -214 -341
c0 -258 85 -434 247 -434z" />
    </font>
</defs>
</svg>
