<?xml version="1.0" encoding="UTF-8"?>
<svg width="500px" height="500px" viewBox="0 0 500 500" version="1.1" xmlns="http://www.w3.org/2000/svg" xmlns:xlink="http://www.w3.org/1999/xlink">
    <!-- Generator: Sketch 41.1 (35376) - http://www.bohemiancoding.com/sketch -->
    <title>Artboard</title>
    <desc>Created with Sketch.</desc>
    <defs></defs>
    <g id="Page-1" stroke="none" stroke-width="1" fill="none" fill-rule="evenodd">
        <g id="Artboard" fill="#3464FF">
            <path d="M401.559834,333.058462 C401.559834,374.19343 368.212707,407.540557 327.077739,407.540557 L172.972692,407.540557 C131.836979,407.540557 98.4905967,374.193885 98.4905967,333.058462 L98.4905967,168.619802 C98.4905967,127.484378 131.836979,94.1377063 172.972692,94.1377063 L327.077739,94.1377063 C368.212707,94.1377063 401.559834,127.484834 401.559834,168.619802 L401.559834,333.058462 Z M443.637834,333.058462 L443.637834,168.619802 C443.637834,104.245796 391.451745,52.0597063 327.077739,52.0597063 L172.972692,52.0597063 C108.59786,52.0597063 56.4125967,104.245422 56.4125967,168.619802 L56.4125967,333.058462 C56.4125967,397.432841 108.59786,449.618557 172.972692,449.618557 L327.077739,449.618557 C391.451745,449.618557 443.637834,397.432468 443.637834,333.058462 Z" id="Stroke-3"></path>
            <path d="M250.024615,309.328632 C217.427543,309.328632 191.002708,282.90328 191.002708,250.305524 C191.002708,217.30966 217.669651,190.350491 249.274632,191.272678 C289.295519,192.439571 309.826356,214.357442 309.053848,249.744308 C308.32489,283.090702 282.308008,309.328632 250.024615,309.328632 Z M250.774048,139.866141 C189.715184,138.084532 139.574308,188.774871 139.574308,250.305524 C139.574308,311.306176 189.024197,360.757032 250.024615,360.757032 C310.625282,360.757032 359.137268,311.832872 360.469981,250.867507 C361.855633,187.393861 319.204592,141.861377 250.774048,139.866141 Z" id="Stroke-5"></path>
            <path d="M378.163578,145.526434 C378.163578,158.652331 367.522646,169.294464 354.395548,169.294464 C341.26965,169.294464 330.627517,158.652331 330.627517,145.526434 C330.627517,132.399336 341.26965,121.758403 354.395548,121.758403 C367.522646,121.758403 378.163578,132.399336 378.163578,145.526434" id="Fill-7"></path>
        </g>
    </g>
</svg>