<?xml version="1.0" standalone="no"?>
<!DOCTYPE svg PUBLIC "-//W3C//DTD SVG 20010904//EN"
 "http://www.w3.org/TR/2001/REC-SVG-20010904/DTD/svg10.dtd">
<svg version="1.0" xmlns="http://www.w3.org/2000/svg"
 width="16.000000pt" height="16.000000pt" viewBox="0 0 16.000000 16.000000"
 preserveAspectRatio="xMidYMid meet">
<metadata>
Created by potrace 1.11, written by Peter Selinger 2001-2013
</metadata>
<g transform="translate(0.000000,16.000000) scale(0.006154,-0.006154)"
fill="#000000" stroke="none">
<path d="M1131 2590 c-556 -78 -987 -483 -1107 -1041 -26 -118 -26 -380 0
-498 59 -273 167 -474 360 -667 193 -193 394 -301 667 -360 118 -26 380 -26
498 0 273 59 474 167 667 360 193 193 301 394 360 667 14 62 18 127 18 249 0
122 -4 187 -18 249 -59 273 -167 474 -360 667 -190 189 -384 296 -646 355 -99
23 -340 33 -439 19z m556 -537 c82 -27 143 -64 183 -110 175 -199 73 -599
-187 -736 -38 -19 -85 -38 -105 -42 -21 -4 -38 -9 -38 -11 0 -2 83 -141 185
-309 102 -167 188 -311 191 -320 6 -14 -20 -15 -245 -13 l-252 3 -142 297
c-78 163 -145 294 -148 290 -3 -4 -25 -131 -48 -282 -24 -151 -45 -283 -48
-292 -4 -16 -22 -18 -204 -18 -193 0 -199 1 -199 20 0 11 54 363 120 781 66
419 120 763 120 766 0 2 170 3 378 1 350 -4 381 -5 439 -25z"/>
<path d="M1230 1766 c0 -7 -44 -289 -56 -355 l-5 -34 88 5 c158 7 240 65 262
185 24 124 -42 187 -210 200 -43 3 -79 3 -79 -1z"/>
</g>
</svg>
