<svg xmlns="http://www.w3.org/2000/svg" width="1678" height="998" viewBox="0 0 1678 998">
  <path d="M839,340.25 C926.675204,340.25 997.75,411.324796 997.75,499 C997.75,586.675204 926.675204,657.75 839,657.75 C751.324796,657.75 680.25,586.675204 680.25,499 C680.25,411.324796 751.324796,340.25 839,340.25 Z M1179,680.25 C1266.6752,680.25 1337.75,751.324796 1337.75,839 C1337.75,926.675204 1266.6752,997.75 1179,997.75 C1091.3248,997.75 1020.25,926.675204 1020.25,839 C1020.25,751.324796 1091.3248,680.25 1179,680.25 Z M1179,340.25 C1266.6752,340.25 1337.75,411.324796 1337.75,499 C1337.75,599.101611 1418.89839,680.25 1519,680.25 C1606.6752,680.25 1677.75,751.324796 1677.75,839 C1677.75,926.675204 1606.6752,997.75 1519,997.75 C1431.3248,997.75 1360.25,926.675204 1360.25,839 C1360.25,738.898389 1279.10161,657.75 1179,657.75 C1078.89839,657.75 997.75,738.898389 997.75,839 C997.75,926.675204 926.675204,997.75 839,997.75 C751.324796,997.75 680.25,926.675204 680.25,839 C680.25,751.324796 751.324796,680.25 839,680.25 C939.101611,680.25 1020.25,599.101611 1020.25,499 C1020.25,411.324796 1091.3248,340.25 1179,340.25 Z M499,657.75 C398.898389,657.75 317.75,738.898389 317.75,839 C317.75,926.675204 246.675204,997.75 159,997.75 C71.324796,997.75 0.25,926.675204 0.25,839 C0.25,751.324796 71.324796,680.25 159,680.25 C259.101611,680.25 340.25,599.101611 340.25,499 C340.25,411.324796 411.324796,340.25 499,340.25 C599.101611,340.25 680.25,259.101611 680.25,159 C680.25,71.324796 751.324796,0.25 839,0.25 C926.675204,0.25 997.75,71.324796 997.75,159 C997.75,246.675204 926.675204,317.75 839,317.75 C738.898389,317.75 657.75,398.898389 657.75,499 C657.75,586.675204 586.675204,657.75 499,657.75 Z"/>
</svg>
