<?xml version="1.0" standalone="no"?>
<!DOCTYPE svg PUBLIC "-//W3C//DTD SVG 20010904//EN"
 "http://www.w3.org/TR/2001/REC-SVG-20010904/DTD/svg10.dtd">
<svg version="1.0" xmlns="http://www.w3.org/2000/svg"
 width="1000.000000pt" height="1000.000000pt" viewBox="0 0 1000.000000 1000.000000"
 preserveAspectRatio="xMidYMid meet">
<metadata>
Created by potrace 1.11, written by Peter Selinger 2001-2013
</metadata>
<g transform="translate(0.000000,1000.000000) scale(0.100000,-0.100000)"
fill="#000000" stroke="none">
<path d="M4739 9946 c-2 -2 -50 -7 -106 -10 -56 -4 -114 -9 -130 -11 -15 -1
-55 -6 -88 -9 -33 -4 -71 -9 -85 -11 -14 -3 -43 -7 -65 -10 -22 -3 -76 -11
-120 -19 -44 -9 -95 -18 -113 -21 -19 -3 -73 -15 -120 -26 -48 -11 -94 -22
-102 -24 -53 -11 -91 -22 -224 -61 -903 -270 -1699 -784 -2327 -1504 -231
-265 -514 -679 -646 -945 -11 -22 -34 -67 -51 -100 -125 -248 -302 -716 -347
-920 -2 -11 -15 -66 -29 -123 -14 -56 -28 -117 -31 -135 -3 -17 -8 -39 -10
-47 -2 -8 -6 -31 -9 -50 -6 -34 -10 -56 -21 -110 -3 -14 -8 -52 -11 -85 -3
-33 -7 -62 -9 -65 -2 -3 -6 -37 -10 -75 -4 -39 -8 -81 -11 -95 -19 -122 -26
-665 -11 -850 13 -150 34 -338 43 -385 2 -11 6 -36 9 -55 3 -19 7 -46 10 -60
3 -14 7 -38 10 -55 3 -16 8 -41 10 -55 3 -14 7 -34 9 -45 111 -559 364 -1171
698 -1685 94 -145 273 -386 353 -477 5 -6 32 -37 60 -70 281 -330 712 -701
1076 -928 539 -335 1045 -541 1642 -670 62 -13 132 -27 157 -30 24 -4 47 -8
50 -10 3 -1 32 -6 65 -9 33 -4 67 -9 75 -11 8 -2 46 -6 83 -10 37 -3 76 -8 86
-10 136 -26 839 -26 1005 0 12 2 48 6 81 10 73 7 221 29 275 40 83 16 125 24
165 31 77 14 354 87 485 129 366 118 814 324 1090 503 395 255 623 437 914
728 123 123 274 293 371 418 17 22 39 51 51 65 53 66 179 248 256 371 83 133
198 332 198 344 0 4 10 23 23 44 59 95 215 469 285 682 68 206 139 477 158
594 3 21 8 48 10 60 2 11 6 35 9 51 3 17 8 44 12 60 3 17 7 41 8 55 2 14 8 61
14 105 28 200 36 350 36 635 0 225 -9 441 -20 500 -1 8 -6 42 -9 75 -75 709
-342 1460 -739 2080 -73 113 -233 342 -252 360 -6 6 -31 37 -56 69 -142 190
-422 479 -675 696 -495 427 -1159 784 -1809 973 -150 44 -382 99 -475 112 -24
4 -47 8 -50 10 -5 3 -186 29 -270 39 -82 10 -145 17 -190 22 -53 6 -656 15
-661 10z m611 -890 c30 -3 73 -8 95 -11 22 -2 63 -7 90 -10 44 -6 162 -25 250
-41 17 -3 59 -12 95 -20 36 -9 76 -18 90 -20 42 -8 229 -63 335 -99 798 -268
1507 -795 2006 -1490 68 -94 175 -261 229 -355 58 -103 190 -375 221 -455 17
-44 36 -93 44 -110 28 -62 134 -398 149 -475 3 -14 18 -90 35 -170 16 -80 32
-165 36 -190 5 -43 12 -96 20 -150 20 -135 27 -590 13 -780 -32 -426 -143
-875 -319 -1290 -39 -92 -192 -390 -244 -475 -127 -210 -262 -397 -419 -580
-83 -96 -323 -335 -426 -424 -300 -257 -664 -485 -1030 -644 -36 -16 -74 -33
-85 -38 -84 -37 -287 -105 -470 -158 -198 -57 -488 -107 -745 -128 -178 -15
-674 -7 -780 12 -8 1 -40 6 -70 10 -89 11 -254 39 -330 56 -25 6 -53 12 -62
14 -35 7 -216 57 -283 77 -38 12 -72 22 -75 23 -3 1 -12 4 -20 8 -8 3 -49 18
-90 32 -41 14 -88 32 -105 39 -16 7 -75 33 -130 56 -353 151 -709 374 -1030
645 -147 125 -402 390 -536 560 -348 440 -620 985 -751 1510 -5 22 -11 47 -14
55 -24 93 -66 319 -79 425 -3 28 -8 66 -10 85 -21 155 -28 593 -13 775 67 806
369 1572 867 2200 192 243 472 520 691 685 18 14 38 30 44 35 44 42 317 220
472 309 479 273 1106 464 1654 502 52 3 97 8 99 10 6 5 520 -3 581 -10z"/>
<path d="M6339 6516 c-2 -2 -42 -6 -89 -10 -47 -3 -94 -8 -105 -10 -11 -2 -40
-7 -65 -11 -84 -14 -95 -16 -175 -36 -89 -23 -235 -78 -304 -117 -202 -110
-342 -279 -402 -482 -28 -95 -35 -319 -15 -425 49 -244 183 -407 430 -520 136
-63 378 -121 701 -170 82 -12 113 -17 260 -40 83 -14 168 -27 189 -31 116 -18
224 -71 262 -128 22 -34 29 -97 15 -139 -26 -77 -137 -143 -285 -168 -138 -23
-417 -14 -526 17 -88 25 -92 26 -130 48 -96 56 -139 116 -155 216 -2 13 -58
15 -425 18 l-423 2 6 -130 c3 -71 8 -133 10 -138 3 -4 8 -23 11 -42 8 -51 44
-157 73 -215 114 -225 328 -374 653 -453 98 -25 126 -30 195 -38 28 -3 52 -7
55 -9 28 -17 565 -26 740 -12 546 43 896 213 1050 509 76 145 112 370 85 528
-4 22 -8 50 -10 63 -30 200 -175 385 -380 486 -79 39 -230 94 -285 105 -14 2
-56 12 -95 21 -83 20 -72 18 -250 45 -77 11 -165 25 -195 30 -30 5 -71 12 -90
15 -19 3 -46 7 -60 9 -14 3 -83 15 -154 26 -71 12 -136 23 -145 25 -167 33
-258 125 -237 238 23 124 156 186 411 192 170 4 301 -18 398 -67 81 -40 156
-131 172 -205 l7 -33 66 0 c92 -1 610 -1 701 0 l74 0 -6 113 c-6 118 -9 133
-33 237 -21 89 -104 253 -161 321 -99 116 -268 222 -443 277 -78 25 -232 58
-315 67 -33 4 -73 9 -90 12 -36 5 -511 14 -516 9z"/>
<path d="M2024 6415 c-2 -5 -3 -647 -2 -1425 l3 -1415 465 0 465 0 3 368 2
367 358 0 357 0 52 -103 c29 -56 61 -118 72 -137 23 -43 41 -77 162 -310 l97
-184 443 -1 c244 0 451 2 460 5 14 4 11 14 -20 70 -20 36 -66 119 -100 185
-35 66 -67 125 -71 130 -4 6 -26 45 -48 88 -63 117 -124 227 -149 272 -12 22
-27 49 -32 60 -5 11 -22 43 -39 72 l-31 52 47 37 c278 224 395 533 360 944
-34 406 -231 686 -579 827 -72 29 -201 65 -279 78 -19 3 -46 7 -60 10 -88 15
-269 19 -1054 19 -584 1 -880 -2 -882 -9z m1676 -779 c53 -11 112 -40 154 -76
144 -127 114 -414 -54 -500 -78 -40 -115 -43 -482 -45 l-358 -1 0 50 c-2 217
1 570 5 575 5 9 690 6 735 -3z"/>
</g>
</svg>
